<svg width="24" height="24" viewBox="0 0 24 24" fill="none" xmlns="http://www.w3.org/2000/svg">
<g id="Albania">
<g clip-path="url(#clip0_495_10510)">
<path id="Vector" d="M12 23C18.0751 23 23 18.0751 23 12C23 5.92487 18.0751 1 12 1C5.92487 1 1 5.92487 1 12C1 18.0751 5.92487 23 12 23Z" fill="white"/>
<path id="Vector_2" d="M22.9999 12.0002C22.9999 8.1139 20.9825 4.70104 17.9399 2.74414V21.2563C20.9825 19.2998 22.9999 15.8863 22.9999 12.0002Z" fill="#FF0000"/>
<path id="Vector_3" d="M1 12.0002C1 15.8865 3.01718 19.2998 6.06 21.2563V2.74414C3.01718 4.70082 1 8.1139 1 12.0002Z" fill="#FF0000"/>
<path id="Vector_4" d="M11.9996 6.82617L11.1363 8.44185C11.0384 8.61741 10.8609 8.59585 10.6842 8.49707L10.061 8.17499L10.5252 10.65C10.6226 11.103 10.3111 11.103 10.1527 10.9092L9.06151 9.68419L8.88617 10.3031C8.86351 10.3882 8.77639 10.4764 8.64065 10.452L7.25663 10.1603L7.62205 11.4856C7.70103 11.7762 7.76065 11.8961 7.54153 11.9753L7.05005 12.2096L9.42913 14.1405C9.52065 14.214 9.56795 14.339 9.53473 14.4619L9.32859 15.1472C10.1483 15.0526 10.8796 14.907 11.6971 14.8208C11.771 14.81 11.8944 14.9308 11.8936 15.0141L11.7838 17.518H12.1824L12.1171 15.0243C12.1171 14.9356 12.2302 14.81 12.3054 14.8208C13.1218 14.9074 13.852 15.0531 14.6708 15.1472L14.4629 14.4619C14.4341 14.339 14.481 14.214 14.5703 14.1405L16.95 12.2096L16.4597 11.9757C16.2443 11.8967 16.2991 11.7766 16.378 11.486L16.7391 10.1607L15.3577 10.4524C15.2301 10.4766 15.1331 10.3886 15.1128 10.3035L14.9362 9.68463L13.8445 10.9096C13.6934 11.1032 13.3735 11.1032 13.4723 10.6504L13.9433 8.17543L13.3167 8.49751C13.1392 8.59607 12.9608 8.61785 12.8631 8.44229L11.9996 6.82617Z" fill="#FF0000"/>
</g>
<rect x="0.75" y="0.75" width="22.5" height="22.5" rx="11.25" stroke="#E7EAF3" stroke-width="0.5"/>
</g>
<defs>
<clipPath id="clip0_495_10510">
<rect x="1" y="1" width="22" height="22" rx="11" fill="white"/>
</clipPath>
</defs>
</svg>
