<svg xmlns="http://www.w3.org/2000/svg"  viewBox="0 0 100 100" width="100px" height="100px"><path d="M 27 11 C 23.698375 11 21 13.698375 21 17 L 21 83 C 21 86.301625 23.698375 89 27 89 L 73 89 C 76.301625 89 79 86.301625 79 83 L 79 30.5 A 1.0001 1.0001 0 0 0 78.707031 29.792969 L 60.207031 11.292969 A 1.0001 1.0001 0 0 0 59.5 11 L 27 11 z M 27 13 L 59 13 L 59 25 C 59 28.308134 61.691866 31 65 31 L 77 31 L 77 83 C 77 85.220375 75.220375 87 73 87 L 27 87 C 24.779625 87 23 85.220375 23 83 L 23 17 C 23 14.779625 24.779625 13 27 13 z M 60 13.914062 L 76.085938 30 L 65 30 C 62.232134 30 60 27.767866 60 25 L 60 13.914062 z M 28.5 16 C 27.125015 16 26 17.125015 26 18.5 L 26 40.5 A 0.50005 0.50005 0 1 0 27 40.5 L 27 18.5 C 27 17.664985 27.664985 17 28.5 17 L 43.5 17 A 0.50005 0.50005 0 1 0 43.5 16 L 28.5 16 z M 73.492188 39.992188 A 0.50005 0.50005 0 0 0 73 40.5 L 73 72.5 A 0.50005 0.50005 0 1 0 74 72.5 L 74 40.5 A 0.50005 0.50005 0 0 0 73.492188 39.992188 z M 26.492188 42.992188 A 0.50005 0.50005 0 0 0 26 43.5 L 26 54.5 A 0.50005 0.50005 0 1 0 27 54.5 L 27 43.5 A 0.50005 0.50005 0 0 0 26.492188 42.992188 z M 33.5 46 A 0.50005 0.50005 0 0 0 33 46.5 L 33 50.5 A 0.50005 0.50005 0 0 0 33.5 51 L 66.5 51 A 0.50005 0.50005 0 0 0 67 50.5 L 67 46.5 A 0.50005 0.50005 0 0 0 66.5 46 L 33.5 46 z M 34 47 L 66 47 L 66 50 L 34 50 L 34 47 z M 33.5 54 A 0.50005 0.50005 0 0 0 33 54.5 L 33 58.5 A 0.50005 0.50005 0 0 0 33.5 59 L 66.5 59 A 0.50005 0.50005 0 0 0 67 58.5 L 67 54.5 A 0.50005 0.50005 0 0 0 66.5 54 L 33.5 54 z M 34 55 L 66 55 L 66 58 L 34 58 L 34 55 z M 26.492188 56.992188 A 0.50005 0.50005 0 0 0 26 57.5 L 26 60.5 A 0.50005 0.50005 0 1 0 27 60.5 L 27 57.5 A 0.50005 0.50005 0 0 0 26.492188 56.992188 z M 33.5 62 A 0.50005 0.50005 0 0 0 33 62.5 L 33 66.5 A 0.50005 0.50005 0 0 0 33.5 67 L 66.5 67 A 0.50005 0.50005 0 0 0 67 66.5 L 67 62.5 A 0.50005 0.50005 0 0 0 66.5 62 L 33.5 62 z M 34 63 L 66 63 L 66 66 L 34 66 L 34 63 z M 33.5 70 A 0.50005 0.50005 0 0 0 33 70.5 L 33 74.5 A 0.50005 0.50005 0 0 0 33.5 75 L 57.5 75 A 0.50005 0.50005 0 0 0 58 74.5 L 58 70.5 A 0.50005 0.50005 0 0 0 57.5 70 L 33.5 70 z M 34 71 L 57 71 L 57 74 L 34 74 L 34 71 z M 73.492188 74.992188 A 0.50005 0.50005 0 0 0 73 75.5 L 73 81.5 C 73 82.335015 72.335015 83 71.5 83 L 60.5 83 A 0.50005 0.50005 0 1 0 60.5 84 L 71.5 84 C 72.874985 84 74 82.874985 74 81.5 L 74 75.5 A 0.50005 0.50005 0 0 0 73.492188 74.992188 z M 52.5 83 A 0.50005 0.50005 0 1 0 52.5 84 L 57.5 84 A 0.50005 0.50005 0 1 0 57.5 83 L 52.5 83 z"/></svg>