<svg width="24" height="24" viewBox="0 0 24 24" fill="none" xmlns="http://www.w3.org/2000/svg">
<g id="Layer_1">
<g id="XMLID_1_">
<path id="XMLID_6_" d="M5.64375 5.00195H0V19.0035H5.64375V5.00195Z" fill="#E91E26"/>
<path id="XMLID_5_" d="M23.9992 5.00195H18.3555V19.0035H23.9992V5.00195Z" fill="#E91E26"/>
<path id="XMLID_4_" d="M18.3523 5.00195H5.64453V19.0035H18.3523V5.00195Z" fill="white"/>
<path id="XMLID_3_" d="M12 6.81641L11.1656 8.43359C11.0719 8.61172 10.9031 8.59297 10.7344 8.49453L10.1297 8.17109L10.5797 10.6555C10.6734 11.1102 10.3688 11.1102 10.2234 10.9133L9.17344 9.68516L9.00469 10.3086C8.98594 10.3883 8.89688 10.4773 8.77031 10.4539L7.43906 10.1633L7.79062 11.4852C7.86562 11.7805 7.92188 11.9023 7.71563 11.9773L7.24219 12.207L9.52969 14.143C9.61875 14.218 9.66563 14.3492 9.63281 14.4664L9.43125 15.1508C10.2187 15.057 10.9266 14.9727 11.7141 14.8789C11.7844 14.8789 11.9016 14.9398 11.9016 15.0242L11.7984 17.532H12.1828L12.1219 15.0289C12.1219 14.9445 12.225 14.8789 12.2953 14.8789C13.0828 14.9727 13.7906 15.057 14.5781 15.1508L14.3766 14.4664C14.3438 14.3492 14.3906 14.2133 14.4797 14.143L16.7672 12.207L16.2938 11.9773C16.0875 11.8977 16.1438 11.7758 16.2188 11.4852L16.5656 10.1633L15.2344 10.4539C15.1031 10.4727 15.0188 10.3883 15 10.3086L14.8312 9.68516L13.7812 10.9133C13.6312 11.1102 13.3266 11.1102 13.425 10.6555L13.875 8.17109L13.2703 8.49453C13.1016 8.59297 12.9328 8.60703 12.8391 8.43359L12 6.81641Z" fill="#E91E26"/>
</g>
</g>
</svg>
