<svg xmlns="http://www.w3.org/2000/svg" width="499" height="77" viewBox="0 0 499 77" fill="none">
  <path d="M389.112 76.11C391.022 76.09 392.952 76.03 394.822 75.96C395.142 75.95 395.382 75.68 395.372 75.37C395.362 75.05 395.082 74.82 394.782 74.82C392.912 74.9 391.002 74.95 389.102 74.98C388.792 74.98 388.532 75.24 388.542 75.56C388.542 75.87 388.802 76.12 389.112 76.12V76.11ZM383.402 76.1C383.712 76.1 383.972 75.85 383.972 75.54C383.972 75.22 383.722 74.97 383.412 74.96C381.522 74.93 379.622 74.88 377.722 74.8C377.382 74.8 377.142 75.03 377.132 75.35C377.122 75.67 377.362 75.93 377.682 75.94C379.592 76.02 381.502 76.07 383.402 76.1ZM372.012 75.63C372.312 75.63 372.562 75.4 372.582 75.1C372.602 74.79 372.362 74.51 372.052 74.49C370.162 74.36 368.272 74.22 366.382 74.05C366.072 74.03 365.792 74.25 365.762 74.57C365.732 74.88 365.962 75.16 366.282 75.19C368.182 75.36 370.082 75.51 371.982 75.64C371.992 75.64 372.012 75.64 372.022 75.64L372.012 75.63ZM400.492 75.63C400.492 75.63 400.522 75.63 400.532 75.63C402.462 75.49 404.382 75.32 406.232 75.12C406.542 75.09 406.772 74.81 406.742 74.49C406.712 74.18 406.442 73.95 406.112 73.98C404.272 74.17 402.372 74.34 400.452 74.48C400.142 74.5 399.902 74.78 399.922 75.09C399.942 75.39 400.192 75.62 400.492 75.62V75.63ZM360.642 74.61C360.932 74.61 361.172 74.39 361.212 74.1C361.242 73.79 361.022 73.51 360.712 73.47C358.832 73.26 356.952 73.03 355.062 72.78C354.752 72.73 354.462 72.96 354.422 73.27C354.382 73.58 354.602 73.87 354.912 73.91C356.812 74.16 358.702 74.39 360.582 74.61C360.602 74.61 360.622 74.61 360.642 74.61ZM411.832 74.43C411.832 74.43 411.882 74.43 411.912 74.43C413.802 74.17 415.712 73.87 417.562 73.55C417.872 73.5 418.082 73.2 418.022 72.89C417.972 72.58 417.672 72.36 417.362 72.43C415.512 72.75 413.622 73.05 411.752 73.31C411.442 73.35 411.222 73.64 411.262 73.95C411.302 74.24 411.542 74.44 411.822 74.44L411.832 74.43ZM349.342 73.11C349.622 73.11 349.862 72.91 349.902 72.63C349.952 72.32 349.732 72.03 349.422 71.98C347.552 71.69 345.682 71.39 343.802 71.07C343.492 71.02 343.192 71.22 343.142 71.54C343.092 71.85 343.302 72.15 343.612 72.2C345.492 72.52 347.372 72.83 349.252 73.12C349.282 73.12 349.312 73.12 349.342 73.12V73.11ZM423.072 72.47C423.072 72.47 423.152 72.47 423.192 72.46C425.042 72.07 426.912 71.64 428.772 71.18C429.082 71.1 429.262 70.79 429.192 70.49C429.112 70.18 428.812 70 428.502 70.07C426.662 70.53 424.792 70.96 422.962 71.34C422.652 71.4 422.452 71.71 422.522 72.02C422.582 72.29 422.812 72.47 423.082 72.47H423.072ZM338.092 71.18C338.362 71.18 338.602 70.99 338.652 70.72C338.712 70.41 338.512 70.11 338.202 70.05C336.342 69.7 334.482 69.33 332.612 68.95C332.312 68.88 332.002 69.08 331.942 69.39C331.882 69.7 332.072 70 332.382 70.06C334.252 70.45 336.122 70.81 337.992 71.17C338.032 71.17 338.062 71.18 338.102 71.18H338.092ZM434.142 69.71C434.192 69.71 434.252 69.71 434.302 69.69C436.132 69.16 437.972 68.59 439.772 67.99C440.072 67.89 440.232 67.57 440.132 67.27C440.032 66.97 439.712 66.81 439.412 66.91C437.622 67.5 435.792 68.07 433.982 68.59C433.682 68.68 433.502 68.99 433.592 69.3C433.662 69.55 433.892 69.71 434.142 69.71ZM326.912 68.89C327.172 68.89 327.412 68.71 327.472 68.44C327.542 68.13 327.342 67.83 327.042 67.76C325.192 67.35 323.342 66.93 321.482 66.5C321.172 66.42 320.872 66.62 320.792 66.92C320.722 67.23 320.912 67.53 321.212 67.61C323.072 68.05 324.932 68.47 326.782 68.88C326.822 68.88 326.862 68.89 326.902 68.89H326.912ZM315.802 66.29C316.062 66.29 316.292 66.12 316.352 65.86C316.432 65.55 316.242 65.24 315.932 65.17C314.092 64.72 312.252 64.25 310.412 63.77C310.102 63.69 309.792 63.88 309.712 64.18C309.632 64.49 309.812 64.8 310.122 64.88C311.972 65.36 313.812 65.83 315.662 66.29C315.712 66.3 315.752 66.31 315.802 66.31V66.29ZM444.982 66.12C445.052 66.12 445.112 66.11 445.182 66.08C446.962 65.41 448.752 64.7 450.502 63.97C450.792 63.85 450.932 63.51 450.812 63.22C450.692 62.93 450.362 62.79 450.062 62.91C448.322 63.64 446.542 64.34 444.782 65C444.482 65.11 444.332 65.44 444.442 65.73C444.532 65.96 444.742 66.1 444.972 66.1L444.982 66.12ZM304.762 63.42C305.012 63.42 305.242 63.25 305.312 63C305.392 62.7 305.212 62.38 304.912 62.3C303.082 61.8 301.252 61.3 299.412 60.78C299.112 60.7 298.792 60.87 298.712 61.18C298.632 61.48 298.802 61.8 299.112 61.88C300.952 62.4 302.782 62.9 304.612 63.4C304.662 63.41 304.712 63.42 304.762 63.42ZM455.502 61.72C455.582 61.72 455.662 61.7 455.742 61.67C457.482 60.86 459.212 60.02 460.882 59.16C461.162 59.02 461.272 58.67 461.132 58.39C460.992 58.11 460.642 58 460.362 58.14C458.702 58.99 456.982 59.83 455.252 60.63C454.962 60.76 454.842 61.1 454.972 61.39C455.072 61.6 455.272 61.72 455.492 61.72H455.502ZM293.772 60.32C294.022 60.32 294.242 60.16 294.322 59.91C294.412 59.61 294.232 59.29 293.932 59.2C292.112 58.67 290.292 58.13 288.462 57.59C288.152 57.5 287.842 57.67 287.752 57.97C287.662 58.27 287.832 58.59 288.132 58.68C289.962 59.23 291.782 59.77 293.612 60.3C293.662 60.31 293.722 60.32 293.772 60.32ZM282.842 57.05C283.082 57.05 283.312 56.89 283.382 56.65C283.472 56.35 283.302 56.03 283.002 55.94C281.192 55.38 279.372 54.82 277.552 54.25C277.252 54.16 276.932 54.32 276.832 54.62C276.742 54.92 276.902 55.24 277.202 55.34C279.022 55.91 280.842 56.48 282.652 57.03C282.712 57.05 282.762 57.06 282.822 57.06L282.842 57.05ZM465.652 56.53C465.742 56.53 465.842 56.51 465.932 56.46C467.592 55.53 469.252 54.56 470.872 53.57C471.142 53.41 471.222 53.06 471.062 52.79C470.902 52.52 470.542 52.44 470.282 52.6C468.672 53.58 467.022 54.55 465.372 55.47C465.092 55.62 465.002 55.97 465.152 56.25C465.252 56.44 465.452 56.54 465.652 56.54V56.53ZM271.952 53.63C272.192 53.63 272.422 53.48 272.492 53.23C272.592 52.93 272.422 52.61 272.122 52.51C270.312 51.93 268.502 51.35 266.692 50.76C266.392 50.66 266.072 50.83 265.972 51.13C265.872 51.43 266.042 51.75 266.342 51.85C268.152 52.44 269.962 53.02 271.772 53.6C271.832 53.62 271.892 53.63 271.942 53.63H271.952ZM475.392 50.6C475.502 50.6 475.612 50.57 475.702 50.51C477.282 49.46 478.872 48.38 480.422 47.28C480.682 47.1 480.742 46.74 480.552 46.48C480.372 46.22 480.012 46.17 479.752 46.35C478.212 47.44 476.642 48.52 475.062 49.56C474.802 49.73 474.722 50.09 474.902 50.35C475.012 50.52 475.192 50.61 475.382 50.61L475.392 50.6ZM261.122 50.1C261.362 50.1 261.582 49.95 261.662 49.71C261.762 49.41 261.602 49.09 261.302 48.99C259.502 48.4 257.702 47.8 255.902 47.2C255.602 47.1 255.282 47.26 255.182 47.56C255.082 47.86 255.242 48.18 255.542 48.28C257.342 48.88 259.142 49.48 260.942 50.07C261.002 50.09 261.062 50.1 261.122 50.1ZM250.322 46.5C250.562 46.5 250.782 46.35 250.862 46.11C250.962 45.81 250.802 45.49 250.502 45.39L245.112 43.57C244.812 43.47 244.492 43.63 244.392 43.93C244.292 44.23 244.452 44.55 244.752 44.65L250.142 46.47C250.202 46.49 250.262 46.5 250.322 46.5ZM484.692 43.99C484.812 43.99 484.932 43.95 485.042 43.87C486.552 42.71 488.072 41.52 489.532 40.32C489.772 40.12 489.812 39.76 489.612 39.52C489.412 39.28 489.052 39.24 488.812 39.44C487.352 40.63 485.862 41.81 484.352 42.96C484.102 43.15 484.052 43.51 484.242 43.76C484.352 43.91 484.522 43.98 484.692 43.98V43.99ZM239.542 42.83C239.782 42.83 240.002 42.68 240.082 42.44C240.182 42.14 240.022 41.82 239.722 41.72L234.332 39.88C234.032 39.78 233.712 39.94 233.612 40.23C233.512 40.53 233.672 40.85 233.962 40.95L239.362 42.79C239.422 42.81 239.482 42.82 239.542 42.82V42.83ZM228.752 39.15C228.992 39.15 229.212 39 229.292 38.76C229.392 38.46 229.232 38.14 228.942 38.04L223.542 36.19C223.252 36.09 222.922 36.25 222.822 36.55C222.722 36.85 222.882 37.17 223.182 37.27L228.582 39.11C228.642 39.13 228.702 39.14 228.772 39.14L228.752 39.15ZM493.522 36.78C493.652 36.78 493.792 36.73 493.892 36.64C495.312 35.4 496.752 34.11 498.152 32.82C498.382 32.61 498.402 32.24 498.182 32.01C497.962 31.78 497.602 31.77 497.372 31.98C495.982 33.27 494.562 34.55 493.142 35.78C492.902 35.99 492.882 36.35 493.082 36.58C493.192 36.71 493.352 36.78 493.512 36.78H493.522ZM217.952 35.46C218.192 35.46 218.412 35.31 218.492 35.07C218.592 34.77 218.432 34.45 218.132 34.35C216.332 33.74 214.522 33.13 212.722 32.52C212.412 32.42 212.102 32.58 212.002 32.88C211.902 33.18 212.062 33.5 212.362 33.6C214.162 34.21 215.962 34.82 217.772 35.43C217.832 35.45 217.892 35.46 217.952 35.46ZM207.122 31.81C207.362 31.81 207.582 31.66 207.662 31.42C207.762 31.12 207.602 30.8 207.302 30.7C205.492 30.09 203.692 29.49 201.882 28.89C201.582 28.79 201.262 28.95 201.162 29.25C201.062 29.55 201.222 29.87 201.522 29.97C203.332 30.57 205.132 31.17 206.942 31.78C207.002 31.8 207.062 31.81 207.122 31.81ZM196.282 28.21C196.522 28.21 196.742 28.06 196.822 27.82C196.922 27.52 196.752 27.2 196.452 27.1C194.642 26.51 192.822 25.92 191.012 25.33C190.712 25.23 190.392 25.4 190.292 25.7C190.192 26 190.362 26.32 190.662 26.42C192.472 27.01 194.282 27.59 196.102 28.19C196.162 28.21 196.222 28.22 196.282 28.22V28.21ZM185.392 24.7C185.632 24.7 185.862 24.55 185.932 24.3C186.032 24 185.862 23.68 185.562 23.58C183.742 23 181.922 22.43 180.102 21.87C179.792 21.77 179.482 21.95 179.392 22.25C179.302 22.55 179.462 22.87 179.772 22.96C181.592 23.52 183.412 24.1 185.232 24.67C185.292 24.69 185.352 24.7 185.402 24.7H185.392ZM174.452 21.3C174.702 21.3 174.922 21.14 175.002 20.9C175.092 20.6 174.922 20.28 174.622 20.19C172.792 19.64 170.962 19.09 169.132 18.55C168.832 18.46 168.512 18.63 168.422 18.94C168.332 19.24 168.502 19.56 168.812 19.65C170.642 20.19 172.472 20.74 174.292 21.29C174.352 21.31 174.402 21.31 174.462 21.31L174.452 21.3ZM163.492 18.06C163.742 18.06 163.972 17.9 164.042 17.65C164.132 17.35 163.952 17.03 163.652 16.94C161.822 16.41 159.992 15.9 158.152 15.39C157.842 15.31 157.532 15.48 157.452 15.79C157.372 16.09 157.542 16.41 157.852 16.49C159.682 17 161.512 17.51 163.342 18.04C163.392 18.06 163.442 18.06 163.502 18.06H163.492ZM152.502 15.01C152.752 15.01 152.982 14.84 153.052 14.59C153.132 14.29 152.952 13.97 152.652 13.89C150.812 13.4 148.972 12.91 147.122 12.44C146.812 12.36 146.502 12.55 146.432 12.85C146.352 13.16 146.542 13.47 146.842 13.54C148.682 14.01 150.512 14.49 152.352 14.99C152.402 15 152.452 15.01 152.502 15.01ZM0.931641 12.66C0.991638 12.66 1.06171 12.65 1.1217 12.63C2.89169 11.99 4.70172 11.38 6.50171 10.79C6.8017 10.69 6.9617 10.37 6.8717 10.07C6.7717 9.77001 6.4516 9.60998 6.15161 9.69998C4.3316 10.29 2.51169 10.91 0.731689 11.55C0.431702 11.66 0.281616 11.98 0.391602 12.28C0.471588 12.51 0.69165 12.66 0.931641 12.66ZM141.442 12.18C141.702 12.18 141.932 12.01 141.992 11.75C142.072 11.44 141.882 11.13 141.572 11.06C139.722 10.61 137.872 10.16 136.012 9.72998C135.702 9.65998 135.402 9.85 135.322 10.16C135.252 10.47 135.442 10.77 135.752 10.85C137.602 11.28 139.442 11.72 141.292 12.17C141.342 12.18 141.382 12.19 141.432 12.19L141.442 12.18ZM130.332 9.60001C130.592 9.60001 130.832 9.41999 130.892 9.14999C130.962 8.83999 130.762 8.54 130.462 8.47C128.592 8.06 126.732 7.67001 124.872 7.29001C124.572 7.23001 124.262 7.42999 124.202 7.73999C124.142 8.04999 124.342 8.35 124.652 8.41C126.512 8.79 128.362 9.18 130.222 9.59C130.262 9.59 130.302 9.60001 130.342 9.60001H130.332ZM11.7816 9.14999C11.8316 9.14999 11.8817 9.15001 11.9417 9.13C13.7317 8.61 15.5816 8.10998 17.4316 7.63998C17.7416 7.55998 17.9217 7.24998 17.8417 6.94998C17.7617 6.63998 17.4516 6.46001 17.1516 6.54001C15.2916 7.01001 13.4317 7.51 11.6317 8.03C11.3317 8.12 11.1517 8.42999 11.2417 8.73999C11.3117 8.98999 11.5416 9.14999 11.7916 9.14999H11.7816ZM119.152 7.31C119.422 7.31 119.662 7.12001 119.712 6.85001C119.772 6.54001 119.572 6.23999 119.262 6.17999C117.392 5.81999 115.512 5.48 113.642 5.16C113.342 5.09 113.032 5.31 112.982 5.62C112.932 5.93 113.132 6.22 113.442 6.28C115.312 6.6 117.172 6.93999 119.042 7.29999C119.082 7.29999 119.112 7.31 119.152 7.31ZM22.8317 6.35001C22.8317 6.35001 22.9117 6.35 22.9517 6.34C24.7816 5.94 26.6617 5.55999 28.5217 5.20999C28.8317 5.14999 29.0316 4.85001 28.9816 4.54001C28.9216 4.23001 28.6216 4.02999 28.3116 4.07999C26.4316 4.42999 24.5517 4.82 22.7017 5.22C22.3917 5.29 22.2017 5.58999 22.2717 5.89999C22.3317 6.16999 22.5617 6.35001 22.8317 6.35001ZM107.912 5.35999C108.192 5.35999 108.432 5.16001 108.472 4.88C108.522 4.57 108.312 4.27998 107.992 4.22998C106.102 3.93998 104.222 3.65999 102.342 3.39999C102.052 3.35999 101.742 3.56998 101.702 3.88998C101.662 4.19998 101.872 4.49 102.192 4.53C104.072 4.79 105.942 5.06999 107.822 5.35999C107.852 5.35999 107.882 5.35999 107.912 5.35999ZM34.0416 4.25C34.0416 4.25 34.1017 4.25 34.1317 4.25C35.9716 3.96 37.8617 3.69999 39.7617 3.45999C40.0717 3.41999 40.2917 3.14001 40.2516 2.82001C40.2116 2.51001 39.9216 2.27999 39.6116 2.32999C37.7016 2.56999 35.8017 2.84 33.9517 3.13C33.6417 3.18 33.4317 3.47 33.4717 3.78C33.5117 4.06 33.7617 4.26001 34.0317 4.26001L34.0416 4.25ZM96.6116 3.79999C96.8916 3.79999 97.1416 3.58999 97.1716 3.29999C97.2116 2.98999 96.9916 2.69998 96.6716 2.66998C94.7716 2.43998 92.8817 2.22999 90.9916 2.04999C90.6716 2.01999 90.4016 2.25 90.3716 2.56C90.3416 2.87 90.5717 3.14999 90.8817 3.17999C92.7717 3.36999 94.6516 3.57999 96.5416 3.79999C96.5616 3.79999 96.5916 3.79999 96.6116 3.79999ZM45.3616 2.82999C45.3616 2.82999 45.4016 2.82999 45.4216 2.82999C47.2916 2.64999 49.1917 2.49 51.0917 2.37C51.4017 2.35 51.6416 2.08001 51.6216 1.76001C51.6017 1.45001 51.3217 1.19998 51.0117 1.22998C49.1017 1.35998 47.1816 1.51998 45.3116 1.69998C45.0016 1.72998 44.7716 2.01001 44.8016 2.32001C44.8316 2.62001 45.0816 2.84 45.3716 2.84L45.3616 2.82999ZM85.2617 2.66998C85.5517 2.66998 85.8017 2.43998 85.8317 2.13998C85.8617 1.82998 85.6216 1.55 85.3116 1.53C83.4117 1.38 81.5116 1.24998 79.6116 1.13998C79.2516 1.10998 79.0316 1.35999 79.0117 1.67999C78.9917 1.98999 79.2316 2.26 79.5516 2.28C81.4417 2.39 83.3316 2.51998 85.2316 2.66998C85.2416 2.66998 85.2617 2.66998 85.2817 2.66998H85.2617ZM56.7416 2.06H56.7617C58.6517 1.98 60.5517 1.92999 62.4517 1.89999C62.7717 1.89999 63.0217 1.64001 63.0117 1.32001C63.0117 1.01001 62.7416 0.78001 62.4316 0.76001C60.5216 0.79001 58.6217 0.839983 56.7117 0.919983C56.4017 0.929983 56.1517 1.20001 56.1617 1.51001C56.1717 1.82001 56.4316 2.06 56.7316 2.06H56.7416ZM73.8616 2.01999C74.1716 2.01999 74.4216 1.78 74.4316 1.47C74.4316 1.15 74.1917 0.890005 73.8817 0.880005C71.9716 0.810005 70.0617 0.77 68.1617 0.75C67.8517 0.75 67.5917 0.999998 67.5917 1.31C67.5917 1.63 67.8417 1.87998 68.1517 1.88998C70.0517 1.90998 71.9417 1.94999 73.8417 2.01999H73.8616Z" fill="url(#paint0_linear_495_1394)"/>
  <defs>
    <linearGradient id="paint0_linear_495_1394" x1="587.75" y1="38.5586" x2="371.277" y2="-252.441" gradientUnits="userSpaceOnUse">
      <stop stop-color="#12C2E9"/>
      <stop offset="0.442776" stop-color="#C471ED"/>
      <stop offset="1" stop-color="#F64F59"/>
    </linearGradient>
  </defs>
</svg>