<svg width="15" height="13" viewBox="0 0 15 13" fill="none" xmlns="http://www.w3.org/2000/svg">
<path id="Vector" d="M12.5304 4.79877C12.7004 4.65877 12.8904 4.52878 13.0704 4.39878C13.7304 3.91878 14.4104 3.41879 14.2704 2.68879C14.1704 2.21879 13.8303 1.09877 12.6703 0.698768C11.8503 0.438768 11.4804 0.428768 10.4604 0.698768L10.2604 0.748786C9.27036 1.01879 8.44034 1.19878 7.68034 0.988776C7.50034 0.918776 7.30037 0.89878 7.08037 0.89878C6.31037 0.89878 5.45037 1.22879 5.15037 1.37879L3.81035 0.838782V2.69877C3.63035 3.18877 3.00038 3.56877 2.53038 3.85877C2.24038 4.02877 2.02036 4.16879 1.89036 4.31879C1.86036 4.35879 1.76038 4.40879 1.66038 4.43879C1.18038 4.60879 0.690339 4.91878 0.990339 6.11878C1.09034 6.50878 1.15037 6.85877 1.21037 7.16877C1.39037 8.07877 1.52038 8.72879 2.03038 9.40879C2.30038 9.76879 2.39037 9.99879 2.46037 10.1888C2.56037 10.4288 2.64038 10.6488 3.03038 10.8988C3.21038 11.0088 3.32034 11.1088 3.43034 11.2088C3.68034 11.4188 3.90037 11.6188 4.52037 11.7688C5.42037 11.9988 6.13034 12.1388 6.93034 12.1388C7.66034 12.1388 9.80035 11.5988 10.1904 11.1088C10.3204 10.9288 10.3803 10.7888 10.4203 10.6288C10.4903 10.4188 10.5804 10.1588 11.0404 9.61878C11.6404 8.89878 12.6604 7.57879 12.6604 6.74879C12.6604 6.49879 12.5603 6.23877 12.4803 5.97877C12.2903 5.42877 12.1904 5.06878 12.5404 4.77878L12.5304 4.79877Z" fill="white"/>
</svg>
