<svg width="42" height="42" viewBox="0 0 42 42" fill="none" xmlns="http://www.w3.org/2000/svg">
<g id="Layer_1">
<g id="Group 3">
<path id="Vector" d="M27.8973 36.75H6.24109C5.51594 36.75 4.82031 36.1627 4.82031 35.4375V6.5625C4.82031 5.83734 5.51594 5.25 6.24109 5.25H24.3798C24.7408 5.25 25.0853 5.39766 25.3314 5.66016L28.7931 9.36469C29.0261 9.6075 29.0983 9.93234 29.0983 10.267V35.4375C29.1016 36.1627 28.6225 36.75 27.8973 36.75Z" fill="white"/>
<path id="Vector_2" d="M29.9102 9.74531L25.7528 5.25H24.9883V10.5H29.9102V9.74531Z" fill="#D8E3EA"/>
<path id="Vector_3" d="M28.7294 36.75H7.07312C6.34797 36.75 5.65234 36.1627 5.65234 35.4375V6.5625C5.65234 5.83734 6.34797 5.25 7.07312 5.25H25.2119C25.5728 5.25 25.9173 5.39766 26.1634 5.66016L29.6252 9.36469C29.8581 9.6075 29.9303 9.93234 29.9303 10.267V35.4375C29.9336 36.1627 29.4545 36.75 28.7294 36.75Z" stroke="#4A7DA7" stroke-width="1.3125" stroke-miterlimit="10"/>
<path id="Vector_4" d="M28.2695 10.5H24.9883V6.89062" stroke="#4A7DA7" stroke-width="0.65625" stroke-miterlimit="10" stroke-linecap="round"/>
<path id="Vector_5" d="M14.9944 16.2422V16.252L13.7081 17.4234L12.435 16.252C12.435 16.252 10.7714 16.6622 10.2956 16.7902C9.81984 16.9181 9.71484 17.9977 9.71484 18.7622C9.71484 18.7622 10.7517 19.3725 13.6884 19.3725C16.6252 19.3725 17.6555 18.7622 17.6555 18.7622C17.6555 17.9977 17.5767 16.9181 17.1009 16.7902C16.6252 16.6622 14.9944 16.2422 14.9944 16.2422Z" fill="#B2DDC9"/>
<path id="Vector_6" d="M13.5911 10.8145C13.0104 10.8145 12.0719 10.9457 11.9144 12.1663C11.7963 13.1113 12.2294 14.3221 12.5477 14.729C12.9054 15.1818 13.2236 15.4082 13.6699 15.4082C14.0768 15.4082 14.359 15.208 14.7363 14.6634C15.0808 14.158 15.4549 12.8685 15.2711 12.0023C15.0513 10.9785 14.0702 10.8145 13.5911 10.8145Z" fill="#B2DDC9"/>
<path id="Vector_7" d="M19.5859 14.7656H23.8516" stroke="#D8E3EA" stroke-width="0.65625" stroke-miterlimit="10" stroke-linecap="round"/>
<path id="Vector_8" d="M19.5859 17.0625H23.8516" stroke="#D8E3EA" stroke-width="0.65625" stroke-miterlimit="10" stroke-linecap="round"/>
<path id="Vector_9" d="M19.5859 19.3594H23.8516" stroke="#D8E3EA" stroke-width="0.65625" stroke-miterlimit="10" stroke-linecap="round"/>
<path id="Vector_10" d="M10.0703 21.6562H23.8516" stroke="#D8E3EA" stroke-width="0.65625" stroke-miterlimit="10" stroke-linecap="round"/>
<path id="Vector_11" d="M10.0703 23.9531H23.8516" stroke="#D8E3EA" stroke-width="0.65625" stroke-miterlimit="10" stroke-linecap="round"/>
<path id="Vector_12" d="M10.0703 26.25H23.8516" stroke="#D8E3EA" stroke-width="0.65625" stroke-miterlimit="10" stroke-linecap="round"/>
<path id="Vector_13" d="M10.0703 28.5469H23.8516" stroke="#D8E3EA" stroke-width="0.65625" stroke-miterlimit="10" stroke-linecap="round"/>
<path id="Vector_14" d="M10.0703 30.8438H23.8516" stroke="#D8E3EA" stroke-width="0.65625" stroke-miterlimit="10" stroke-linecap="round"/>
</g>
</g>
</svg>
