<svg width="299" height="157" viewBox="0 0 299 157" fill="none" xmlns="http://www.w3.org/2000/svg">
<path fill-rule="evenodd" clip-rule="evenodd" d="M37.4628 148.817V149.614V156.08V156.61V157.671V168.316V171.898L38.7556 173.654H35.1414H29.6039H24.796L25.8567 171.898H25.8896V157.936L25.1933 156.014H27.6802H26.8849H25.9229C25.6911 153.195 23.3036 150.94 20.4523 150.94C17.534 150.94 15.1794 153.195 14.9477 156.014H13.9857H13.1567H15.6769L14.9802 157.936V171.898H15.0135L16.2734 173.654H11.3324H5.99413H2.34633L3.37451 171.898V168.316V157.671V156.61V156.08V149.614V148.817V146.53V146.231L0.35723 143.877H0.257812V143.777V143.645H3.37451V141.357V140.728V140.196V139.832H37.4628V140.196V140.728V141.357V143.645H40.6127V143.712V143.877H40.4472L37.4628 146.231V146.53V148.817Z" fill="#D1E1FF"/>
<path fill-rule="evenodd" clip-rule="evenodd" d="M38.4286 153.788V157.435V157.734V158.032H38.6604V164.133V164.531V166.82V167.217V172.689V173.385V173.649H78.5507V173.385V172.689V167.217V166.82V164.531V164.133V158.031H78.9824V157.734V157.435V153.788V153.29H78.4188V149.875V141.584V141.054V133.626V133.095V117.875H79.2141V116.88H77.6227V115.388H77.0587V114.925H76.8931L76.263 113.797L75.6 112.603L74.9698 113.797L74.3393 114.925H74.1734V115.388H64.7563V116.88H63.1317V117.875H64.0268V133.095V133.626V134.024H60.114L59.4835 129.282L59.3508 128.022V121.257H60.4119V120.428H59.3508V119.532H58.4553V120.428H57.3946V121.257H58.4553V127.856L58.2565 129.281L57.6267 134.024H53.2164V133.626V133.094V117.875H54.0125V116.88H52.4204V115.388H43.2018V114.924H43.0362L42.4061 113.797L41.7763 112.603L41.1133 113.797L40.516 114.924H40.3172V115.388H39.554V116.88H37.9297V117.875H38.8244V133.094V133.626V141.054V141.584V149.874V153.29H38.4271V153.788H38.4286ZM53.2176 135.517H57.6611V138.303L57.3957 138.733L55.8704 141.121H53.2176V141.054V135.517ZM60.1151 135.517H64.0279V141.054V141.121H61.9054L60.413 138.733L60.1151 138.303V135.517ZM53.9142 147.719C54.0465 145.332 55.9037 143.442 58.258 143.277C55.9037 143.442 54.0465 145.365 53.9142 147.719ZM76.0309 141.453H66.4147V141.055V134.157H76.0309V141.055V141.453ZM72.5827 135.318C72.9138 135.318 73.2124 135.517 73.2124 135.748V140.689H71.9525V135.748C71.9529 135.517 72.2179 135.318 72.5827 135.318ZM70.0957 135.318C70.4273 135.318 70.7259 135.517 70.7259 135.748V140.689H69.466V135.748C69.466 135.517 69.731 135.318 70.0957 135.318ZM74.0085 143.873H75.3017V142.58H74.0085V143.873ZM67.2108 143.873H68.5368V142.58H67.2108V143.873ZM47.3815 135.318C47.713 135.318 48.0112 135.517 48.0112 135.748V140.689H46.7509V135.748C46.7513 135.517 47.017 135.318 47.3815 135.318ZM44.8941 135.318C45.2264 135.318 45.4914 135.517 45.4914 135.748V140.689H44.2644V135.748C44.2644 135.517 44.5294 135.318 44.8941 135.318ZM48.8069 143.873H50.1009V142.58H48.8069V143.873ZM42.0092 143.873H43.3027V142.58H42.0092V143.873ZM76.1311 172.689H75.2359V163.934C75.2359 161.249 71.2899 159.06 71.2899 159.06C71.2899 159.06 67.3434 161.249 67.3434 163.934V172.689H66.0503V167.217V166.82V164.531V164.133V158.031H76.1311V164.133V164.531V166.819V167.217V172.689ZM63.6295 172.689H62.602V163.934C62.602 161.249 58.6556 159.06 58.6556 159.06C58.6556 159.06 54.7096 161.249 54.7096 163.934V172.689H53.582V167.217V166.82V164.531V164.133V158.031H63.6295V164.133V164.531V166.819V167.217V172.689ZM51.1287 172.689H50.0011V163.934C50.0011 161.249 46.055 159.06 46.055 159.06C46.055 159.06 42.109 161.249 42.109 163.934V172.689H41.1144V167.217V166.82V164.531V164.133V158.031H51.1283V164.133V164.531V166.819V167.217L51.1287 172.689Z" fill="#D1E1FF"/>
<path fill-rule="evenodd" clip-rule="evenodd" d="M204.755 171.297H205.418L200.411 161.615C197.792 159.094 194.21 157.57 190.298 157.57C186.716 157.57 183.466 158.863 180.946 160.985L175.607 171.298H176.569V173.652H163.969V171.298H165.626L176.005 151.237V148.219H178.227L181.907 137.674V137.442H181.974L183.002 134.457H182.605V131.672H183.765V131.142H182.04V128.124H184.66C186.617 112.805 187.545 86.476 187.844 78.0539H187.777V77.3908H187.877L187.91 75.7658H187.446V73.046H188.64V69.6964H190.033V64.9551H190.497V60.6113H191.028V64.9551H191.525V69.6964H192.884V73.046H194.111V75.7647H193.614L193.68 77.3897H193.747V78.0528H193.714C193.88 82.7949 194.211 93.2726 194.875 104.282L194.907 104.381L194.875 104.414C195.272 111.08 195.769 117.878 196.366 123.714C196.531 125.305 196.73 126.731 196.863 128.123H199.516V131.141H197.792V131.671H198.92V134.456H198.655L199.683 137.441L203.43 148.219H204.589V151.037L204.822 150.937L215.366 171.297H217.356V173.651H204.756L204.755 171.297ZM179.156 147.522L182.505 145.565L180.549 143.675L179.156 147.522ZM181.047 142.117L184.03 140.161L182.34 138.47L181.047 142.117ZM182.804 137.144L184.992 135.75L183.666 134.624L182.804 137.144ZM197.924 134.456H197.824L196.564 135.65L198.786 136.943L197.924 134.456ZM199.349 138.503L197.792 140.094L200.477 141.785L199.349 138.503ZM201.108 143.544L198.985 145.565L202.533 147.622L201.108 143.544ZM190.396 75.7647L189.6 76.4281L188.805 75.7647H190.396ZM189.369 76.6605L188.44 77.3901L188.506 75.8973L189.369 76.6605ZM188.872 77.3897L189.534 76.8261L190.132 77.3897H188.872ZM189.8 76.6273L190.463 76.0965V76.1298V76.1627V76.3283V76.3615V76.5604V76.594V76.8261V76.8923V77.2234L189.8 76.6273ZM190.463 78.1193L189.468 79.1475L188.44 78.0531H190.463V78.1193ZM189.203 79.4121L188.374 80.308L188.407 78.5173L189.203 79.4121ZM188.374 80.7389L189.435 79.6442L190.396 80.7389H188.374ZM189.667 79.3796L190.463 78.5506V80.2411L189.667 79.3796ZM190.463 81.4019L189.402 82.463L188.44 81.3687H190.463V81.4019ZM189.103 82.6951L188.242 83.6235L188.307 81.7334L189.103 82.6951ZM188.208 84.0884L189.369 82.9608L190.33 84.1213H188.208V84.0884H188.208ZM189.601 82.6951L190.464 81.8332V83.69L189.601 82.6951ZM190.463 84.8176L189.369 85.8783L188.34 84.7511H190.463V84.8176ZM189.071 86.1441L188.109 87.0721V86.8736L188.175 85.1488L189.071 86.1441ZM188.175 87.4372L189.302 86.3758L190.264 87.4372H188.175ZM189.535 86.1441L190.463 85.2818V87.1382L189.535 86.1441ZM190.463 88.2991L189.369 89.2611L188.175 88.0674H190.396L190.463 88.1003V88.2991ZM189.071 89.4929L187.976 90.4216L188.076 88.4654L189.071 89.4929ZM188.009 90.8189L189.302 89.7253L190.364 90.8189H188.009ZM189.535 89.4929L190.463 88.7304V89.5261V89.6588V89.8909V89.9907V90.2564V90.3887L189.535 89.4929ZM191.094 88.1997L191.193 88.0674H193.414L192.287 89.2611L191.094 88.2329V88.1997ZM190.463 91.4827L189.203 92.5434L188.109 91.4494H190.463V91.4827ZM188.938 92.7759L187.844 93.7043L187.91 91.7477L188.938 92.7759ZM187.777 94.1352L189.17 93.0076L190.298 94.2014H187.777V94.1352H187.777ZM189.435 92.7759L190.396 91.9133V92.1125V92.3775V92.6096V92.9415V93.1736V93.5054V93.7704V93.8033L189.435 92.7759ZM190.364 94.8651L189.103 95.9591L187.976 94.7986H190.364V94.8651ZM188.839 96.1912L187.678 97.2194L187.745 95.0969L188.839 96.1912ZM187.777 97.5176L189.071 96.4237L190.165 97.5176H187.777ZM189.369 96.1912L190.363 95.2961V95.4949V95.6605V96.1579V96.3568L190.33 96.8871V97.0527V97.2187L189.369 96.1912ZM187.844 94.7986L187.744 95.0969L187.777 94.7986H187.844ZM190.231 98.1474L189.038 99.2089L187.976 98.1474H190.231ZM188.739 99.4739L187.479 100.601L187.579 98.347L188.739 99.4739ZM187.712 100.9L189.005 99.7063L190.231 100.9H187.712ZM189.302 99.4406L190.331 98.5455L190.298 99.1091V99.2085V99.9048V99.9709L190.264 100.369L189.302 99.4406ZM190.032 101.53L188.872 102.492L187.91 101.53H190.032ZM188.54 102.824L187.28 103.852L187.446 101.663L188.54 102.824ZM187.479 104.249L188.839 103.088L189.934 104.249H187.479ZM189.203 102.824L190.231 101.894V102.326L190.165 103.818L189.203 102.824ZM190.132 104.88L188.872 105.94L187.877 104.88H190.132ZM188.54 106.205L187.081 107.466L187.247 104.88L188.54 106.205ZM187.579 107.598L188.838 106.537L189.9 107.598H187.579ZM189.203 106.205L190.132 105.442V105.576L190.098 105.741V106.404V106.603L190.065 107.133L189.203 106.205ZM189.834 108.227L188.64 109.189L187.712 108.227H189.834ZM188.307 109.521L186.849 110.748L187.047 108.227L188.307 109.521ZM187.28 110.947L188.607 109.82L189.734 110.947H187.28ZM188.971 109.521L190.032 108.594L189.999 108.959V109.223L189.933 110.483L188.971 109.521ZM189.601 111.577L188.341 112.605L187.347 111.577H189.601ZM187.976 112.87L186.616 113.965L186.815 111.61L187.976 112.87ZM186.881 114.296L188.307 113.202L189.302 114.296H186.881ZM188.606 112.903L189.866 111.942C189.833 112.638 189.8 113.4 189.734 114.097L188.606 112.903ZM189.501 114.96L188.242 115.92L187.28 114.96H189.501ZM187.91 116.22L186.352 117.446C186.418 116.65 186.484 115.788 186.55 114.96H186.683L187.91 116.22ZM186.815 117.645L188.175 116.518L189.236 117.645H186.815ZM188.54 116.253L189.667 115.357C189.634 116.021 189.601 116.683 189.535 117.314L188.54 116.253ZM188.971 118.275L187.877 119.17L187.047 118.275H188.971ZM187.512 119.469L186.054 120.596C186.153 119.867 186.22 119.072 186.252 118.275H186.418L187.512 119.469ZM186.252 121.028L187.777 119.768L189.005 121.028H186.252ZM188.141 119.502L189.468 118.442C189.402 119.17 189.369 119.967 189.269 120.662L188.141 119.502ZM189.038 121.658L187.579 122.785L186.551 121.658H189.038ZM187.247 123.05L185.821 124.244H185.721C185.788 123.415 185.854 122.553 185.953 121.691L187.247 123.05ZM186.484 124.244L187.545 123.383L188.341 124.244H186.484ZM187.91 123.117L189.17 122.121C189.07 122.819 189.005 123.549 188.938 124.178L187.91 123.117ZM188.773 124.875L187.147 126.201L185.92 124.875H188.773ZM186.815 126.465L185.323 127.66C185.39 126.863 185.522 126.034 185.589 125.206L186.815 126.465ZM185.39 128.123L187.08 126.797L188.208 127.991V128.024L188.175 128.123H185.39ZM187.446 126.499L188.739 125.47C188.606 126.201 188.506 126.897 188.374 127.494L187.446 126.499ZM191.226 75.7647L192.054 76.4281L192.817 75.7647H191.226ZM192.287 76.6605L193.083 77.2907L193.049 75.9639L192.287 76.6605ZM192.718 77.3897L192.087 76.8261L191.458 77.3897H192.718ZM191.822 76.6273L191.094 75.9967V76.1302V76.1631V76.3286V76.3619V76.5607V76.5944V76.8265V76.8926V77.2907L191.822 76.6273ZM191.094 78.0531L192.187 79.1475L193.116 78.0864V78.0531H191.094ZM192.42 79.4121L193.149 80.2078L193.116 78.6496L192.42 79.4121ZM193.182 80.6724L192.222 79.6442L191.193 80.7389H193.182V80.6724ZM191.955 79.3796L191.094 78.4837V80.3412L191.955 79.3796ZM191.159 81.3687L192.254 82.463L193.149 81.3687H191.159ZM192.486 82.6951L193.282 83.4912L193.248 81.8332L192.486 82.6951ZM193.314 83.955L192.287 82.9608L191.326 84.1213H193.314V83.955ZM192.021 82.6951L191.094 81.7667V83.8556L192.021 82.6951ZM191.094 84.7515L192.287 85.8787L193.314 84.7515H191.094ZM192.553 86.1441L193.414 86.9398L193.347 85.2486L192.553 86.1441ZM193.414 87.4372L192.321 86.3758L191.392 87.4372H193.414ZM192.054 86.1441L191.094 85.2153V87.2384L192.054 86.1441ZM192.553 89.4929L193.547 90.3555L193.48 88.5316L192.553 89.4929ZM193.581 90.786L192.321 89.7257L191.226 90.8193H193.581V90.786ZM192.054 89.4929L191.094 88.6639V89.5261V89.6588V89.8909V89.9907V90.2564V90.4216V90.4549L192.054 89.4929ZM191.159 91.4494L192.453 92.5434L193.547 91.4494H191.159ZM192.718 92.7759L193.713 93.6377L193.613 91.88L192.718 92.7759ZM193.713 94.0691L192.486 93.0076L191.359 94.2014H193.747L193.713 94.0691ZM192.221 92.7759L191.127 91.8471V92.1128V92.3778V92.6099V92.9418V93.1739V93.5058V93.7708V93.8702L192.221 92.7759ZM191.159 94.7986L192.52 95.9591L193.68 94.7986H191.159ZM192.817 96.1912L193.879 97.12L193.779 95.1967L192.817 96.1912ZM193.879 97.5176L192.553 96.4237L191.458 97.5176H193.879ZM192.287 96.1912L191.159 95.1967V95.4949V95.6605V96.1579V96.3568L191.193 96.8871V97.0527V97.2852L192.287 96.1912ZM191.425 98.1474L192.553 99.2089L193.614 98.1474H191.425ZM192.884 99.4739L194.045 100.502L193.945 98.4464L192.884 99.4739ZM193.945 100.9L192.652 99.7063L191.425 100.9H193.945ZM192.321 99.4406L191.193 98.446L191.226 99.1091V99.2085V99.9048V99.9709L191.26 100.469L192.321 99.4406ZM191.591 101.53L192.752 102.492L193.713 101.53H191.591ZM193.083 102.824L194.21 103.752L194.111 101.762L193.083 102.824ZM194.144 104.249L192.817 103.088L191.657 104.249H194.144ZM192.453 102.824L191.26 101.828L191.326 102.326L191.359 103.918L192.453 102.824ZM191.524 104.88L192.718 105.94L193.779 104.88H191.524ZM193.083 106.205L194.442 107.4L194.277 105.012L193.083 106.205ZM194.044 107.598L192.817 106.537L191.756 107.598H194.044ZM192.453 106.205L191.392 105.343V105.575L191.425 105.741V106.404V106.603L191.458 107.233L192.453 106.205ZM191.822 108.227L192.95 109.189L193.945 108.227H191.822ZM193.314 109.521L194.675 110.649L194.541 108.294L193.314 109.521ZM194.376 110.947L193.049 109.82L191.888 110.947H194.376ZM192.685 109.521L191.524 108.527L191.557 108.958V109.223L191.591 110.616L192.685 109.521ZM192.021 111.577L193.314 112.605L194.243 111.577H192.021ZM193.68 112.87L194.874 113.898L194.707 111.743L193.68 112.87ZM194.707 114.296L193.347 113.202L192.287 114.296H194.707ZM192.983 112.903L191.657 111.809C191.689 112.638 191.756 113.434 191.789 114.197L192.983 112.903ZM192.121 114.96L193.381 115.92L194.343 114.96H192.121ZM193.746 116.22L195.205 117.381C195.105 116.551 195.039 115.788 195.006 114.96H194.973L193.746 116.22ZM194.84 117.645L193.414 116.518L192.387 117.645H194.84ZM193.083 116.253L191.856 115.258C191.889 115.988 191.955 116.716 191.989 117.414L193.083 116.253ZM192.685 118.275L193.779 119.17L194.608 118.275H192.685ZM194.144 119.469L195.47 120.53C195.404 119.768 195.305 119.038 195.271 118.275H195.239L194.144 119.469ZM195.404 121.028L193.812 119.768L192.651 121.028H195.404ZM193.48 119.502L192.054 118.309C192.087 119.171 192.187 120.001 192.254 120.795L193.48 119.502ZM192.619 121.658L194.012 122.785L195.106 121.658H192.619ZM194.376 123.05L195.834 124.244C195.735 123.448 195.669 122.619 195.569 121.823L194.376 123.05ZM195.105 124.244L194.111 123.383L193.282 124.244H195.105ZM193.746 123.117L192.387 122.023C192.453 122.785 192.519 123.549 192.651 124.244L193.746 123.117ZM192.851 124.875L194.475 126.201L195.702 124.875H192.851ZM194.84 126.465L196.2 127.56C196.134 126.83 196.001 126.068 195.934 125.305L194.84 126.465ZM196.2 128.123L194.541 126.797L193.315 128.09L193.348 128.123H196.2ZM194.177 126.499L192.817 125.371C192.917 126.201 193.049 126.929 193.182 127.56L194.177 126.499ZM183.234 137.441H186.948L185.39 136.115L183.234 137.441ZM187.014 134.456L185.39 135.485L184.229 134.456H187.014ZM185.787 135.851L187.943 134.457H188.242L187.844 137.441H187.712L185.787 135.851ZM196.167 135.982L194.608 137.441H198.687L196.167 135.982ZM194.475 134.456L196.134 135.418L197.161 134.456H194.475ZM195.735 135.75L193.414 134.456L193.912 137.441L195.735 135.75ZM181.443 142.68H186.584L184.527 140.658L181.443 142.68ZM187.213 138.071L184.527 139.83L182.77 138.071H187.213ZM185.058 140.327L187.645 138.669L187.047 142.349L185.058 140.327ZM197.262 140.591L195.172 142.68H200.676L197.262 140.591ZM194.541 138.071L197.261 139.763L198.952 138.071H194.541ZM196.763 140.26L194.045 138.569L194.608 142.117L194.641 142.383L196.763 140.26ZM198.455 146.063L196.266 148.219H202.002L198.455 146.063ZM195.271 143.311L198.423 145.201L200.378 143.311H195.271ZM197.857 145.765L194.907 143.974L195.537 147.986L197.857 145.765ZM179.487 148.219H185.29L183.035 146.064L179.487 148.219ZM186.22 143.311L183.101 145.201L181.113 143.311H186.22ZM183.633 145.765L186.816 143.874L186.153 148.152L183.633 145.765ZM196.763 154.552V155.58C196.995 155.68 197.229 155.779 197.427 155.845L196.763 154.552ZM196.498 155.48V154.022L196.068 153.193V155.315L196.498 155.48ZM195.769 155.248V152.662L195.504 152.132H195.338V155.082L195.769 155.248ZM195.039 154.982V152.132H194.641V154.883L195.039 154.982ZM194.343 154.85V152.132H193.912V154.718L194.343 154.85ZM193.614 154.685V152.132H193.182V154.619L193.614 154.685ZM192.917 154.552V152.132H192.486V154.486L192.917 154.552ZM192.221 154.452V152.132H191.79V154.42L192.221 154.452ZM191.524 154.42V152.132H191.094V154.387L191.524 154.42ZM190.795 154.387V152.132H190.364V154.387L190.795 154.387ZM190.066 154.387V152.132H189.667V154.387L190.066 154.387ZM189.369 154.387V152.132H188.938V154.42L189.369 154.387ZM188.64 154.452V152.132H188.208V154.486L188.64 154.452ZM187.943 154.519V152.132H187.512V154.552L187.943 154.519ZM187.247 154.652V152.132H186.816V154.718L187.247 154.652ZM186.55 154.751V152.132H186.119V154.883L186.55 154.751ZM185.821 154.95V152.132H185.522L185.389 152.364V155.082L185.821 154.95ZM185.092 155.149V152.927L184.693 153.757V155.282L185.092 155.149ZM206.546 170.535L208.269 168.347L204.555 166.688L206.546 170.535ZM208.899 167.617L210.59 165.528H204.257L208.899 167.617ZM211.221 166.158L209.763 168.015L212.912 169.374L211.221 166.158ZM209.132 168.744L207.11 171.297H213.874L213.576 170.701L209.132 168.744ZM203.429 164.533L205.352 163.174L202.169 162.046L203.429 164.533ZM206.115 162.675L207.905 161.449H202.799L206.115 162.675ZM208.867 161.581L206.91 162.941L210.16 164.102L208.867 161.581ZM206.115 163.472L204.092 164.897H210.027L206.115 163.472ZM202.169 160.819H207.772L204.092 159.492L202.169 160.819ZM201.373 160.555L203.295 159.227L200.08 158.067L201.373 160.555ZM204.092 158.664L205.982 157.371H200.477L204.092 158.664ZM206.777 157.635L204.888 158.962L208.071 160.123L206.777 157.635ZM199.416 156.773H206.347L205.715 155.546H198.786L199.416 156.773ZM174.414 170.601L172.657 168.347L176.47 166.688L174.414 170.601ZM172.026 167.617L170.368 165.528H176.702L172.026 167.617ZM169.771 166.192L171.164 168.015L168.146 169.342L169.771 166.192ZM171.795 168.744L173.851 171.297H167.152L167.45 170.668L171.795 168.744ZM177.565 164.566L175.608 163.174L178.858 162.013L177.565 164.566ZM174.811 162.675L173.054 161.449H178.161L174.811 162.675ZM172.159 161.615L174.05 162.941L170.867 164.102L172.159 161.615ZM174.811 163.472L176.867 164.897H170.898L174.811 163.472ZM178.792 160.819H173.187L176.868 159.492L178.792 160.819ZM205.385 154.917H198.455L197.029 152.132H203.96L205.385 154.917ZM179.586 160.588L177.631 159.227L180.946 158.067L179.586 160.588ZM176.867 158.664L174.978 157.371H180.449L176.867 158.664ZM174.182 157.669L176.072 158.962L172.922 160.09L174.182 157.669ZM181.61 156.773H174.646L175.276 155.546H182.24L181.61 156.773ZM182.539 154.917H175.607L177.066 152.132H183.997L182.539 154.917ZM188.706 136.282H193.049L194.874 148.219H186.815L187.744 142.117L188.706 136.282ZM192.917 135.651H188.773L188.971 134.457H192.718L192.917 135.651ZM184.395 155.38V154.286L183.666 155.68C183.898 155.546 184.13 155.48 184.395 155.38ZM198.886 158.631L198.522 157.934C196.1 156.508 193.314 155.714 190.298 155.714C187.545 155.714 184.926 156.409 182.671 157.636L182.339 158.3C184.693 156.973 187.412 156.177 190.298 156.177C193.48 156.177 196.366 157.072 198.886 158.631Z" fill="#D1E1FF"/>
<path fill-rule="evenodd" clip-rule="evenodd" d="M129.347 145.366V147.72H129.646V148.152H129.546C138.001 153.491 133.26 155.148 134.254 156.21C132.63 156.176 131.005 156.176 129.347 156.21H124.373C125.003 155.049 120.096 153.523 128.85 148.152H128.75V147.72H129.049V145.499C128.983 145.499 128.917 145.499 128.85 145.499C128.485 145.499 128.154 145.266 128.021 144.902C128.187 145.068 128.386 145.134 128.618 145.134C129.115 145.134 129.546 144.736 129.546 144.238C129.546 144.138 129.513 144.006 129.48 143.94C129.679 144.106 129.778 144.337 129.778 144.571C129.778 144.902 129.612 145.2 129.347 145.366ZM112.834 158.265C112.933 158.067 112.137 157.833 113.596 156.939C114.989 157.833 114.226 158.1 114.392 158.265C113.861 158.265 113.364 158.265 112.834 158.265ZM112.768 159.79H114.359V158.927H112.768V159.79ZM113.066 159.592H113.364V159.093H113.066V159.592ZM113.795 159.592H114.06V159.093H113.795V159.592ZM113.431 159.592H113.696V159.093H113.431V159.592ZM112.568 158.829H114.591V158.663H112.568V158.829ZM112.568 158.531H114.591V158.365H112.568V158.531ZM112.568 160.055H114.591V159.923H112.568V160.055ZM112.568 160.254H114.591V160.122H112.568V160.254ZM112.734 160.287H114.392V164.4H112.734V160.287ZM114.392 164.666V168.214H112.734V164.666H114.392ZM114.392 168.478V170.668H116.348V160.521L119.631 159.857V170.668H119.763V158.067H120.195V157.934H124.042V156.773H134.388V157.735V157.933H138.366V158.067H138.698V170.668H138.897V159.691L142.08 160.587V170.668H144.235V168.478H145.86V170.668H148.811V167.119H151.465V170.668H154.846V171.562H103.648V170.668H107.13V167.119H109.816V170.668H112.734V168.478H114.392ZM109.683 150.505C109.517 150.207 110.811 149.843 108.456 148.418C106.169 149.809 107.429 150.24 107.163 150.505C107.992 150.505 108.854 150.505 109.683 150.505ZM109.75 152.992H107.196V151.599H109.75V152.992ZM109.285 152.694H108.854V151.899H109.285V152.694ZM108.092 152.694H107.661V151.899H108.092V152.694ZM108.689 152.694H108.258V151.899H108.689V152.694ZM110.147 151.534H106.832V151.169H110.147V151.534ZM110.147 151.004H106.832V150.672H110.147V151.004ZM110.147 153.424H106.832V153.093H110.147V153.424ZM110.147 153.755H106.832V153.523H110.147V153.755ZM154.846 173.65H103.648V171.861H154.846V173.65ZM109.816 153.822H107.131V160.486H109.816V153.822ZM148.911 150.505C149.11 150.207 147.784 149.843 150.171 148.418C152.458 149.809 151.199 150.24 151.465 150.505C150.603 150.505 149.773 150.505 148.911 150.505ZM151.432 152.992V151.599H151.796V151.169H148.48V151.599H148.845V152.992H148.48V153.391V153.424V153.822H148.811V160.486H151.465V153.822H151.796V153.424V153.391V152.992H151.432ZM149.342 152.694H149.773V151.899H149.342V152.694ZM150.503 152.694H150.967V151.899H150.503V152.694ZM149.938 152.694H150.371V151.899H149.938V152.694ZM148.48 151.102H151.796V150.672H148.48V151.102ZM151.465 160.918V166.654H148.811V160.918H151.465ZM124.672 170.668H133.791V158.63H124.672V170.668ZM145.794 158.265C145.695 158.067 146.49 157.833 145.032 156.939C143.606 157.833 144.401 158.1 144.236 158.265C144.766 158.265 145.263 158.265 145.794 158.265ZM145.861 159.79H144.269V158.927H145.861V159.79ZM145.529 159.592H145.263V159.093H145.529V159.592ZM144.832 159.592H144.568V159.093H144.832V159.592ZM145.164 159.592H144.899V159.093H145.164V159.592ZM146.059 158.862H144.037V158.663H146.059V158.862ZM146.059 158.531H144.037V158.365H146.059V158.531ZM146.059 160.055H144.037V159.89H146.059V160.055ZM146.059 160.287H145.861V164.4H144.236V160.287H144.037V160.122H146.059V160.287ZM144.236 164.666V168.214H145.861V164.666H144.236ZM107.131 160.918V166.654H109.816V160.918H107.131ZM118.736 167.218V169.672L117.046 169.705V167.417C117.046 166.986 117.841 166.29 117.874 166.29C117.907 166.29 118.736 166.787 118.736 167.218ZM118.736 163.107V165.527L117.046 165.726V163.305C117.046 162.84 117.841 162.145 117.874 162.145C117.907 162.111 118.736 162.609 118.736 163.107ZM139.858 167.218V169.672L141.55 169.705V167.417C141.55 166.986 140.721 166.29 140.688 166.29C140.655 166.29 139.858 166.787 139.858 167.218ZM139.858 163.107V165.527L141.55 165.726V163.305C141.55 162.84 140.721 162.145 140.688 162.145C140.655 162.111 139.858 162.609 139.858 163.107ZM134.884 157.735C135.084 157.37 133.492 156.939 136.41 155.181H136.377H136.278V155.049H136.377V154.452C136.344 154.452 136.311 154.452 136.278 154.452C136.178 154.452 136.045 154.352 136.012 154.252C136.045 154.285 136.145 154.319 136.212 154.319C136.377 154.319 136.51 154.186 136.51 154.053C136.51 154.021 136.51 153.988 136.477 153.954C136.543 153.988 136.576 154.053 136.576 154.153C136.576 154.252 136.543 154.318 136.477 154.386V155.048H136.543V155.181H136.477H136.411C139.196 156.873 137.737 157.403 138.002 157.734L134.884 157.735ZM130.077 163.637V165.527H132V163.571C132 162.444 129.381 160.918 129.248 160.918C129.115 160.918 126.495 162.444 126.495 163.571V165.527H128.386V163.637C128.386 163.305 129.182 162.84 129.248 162.84C129.28 162.841 130.077 163.306 130.077 163.637ZM130.077 167.847V169.705H128.385V167.847C128.385 167.483 129.181 167.019 129.247 167.019C129.28 167.019 130.077 167.483 130.077 167.847ZM132 166.191H126.495V169.705H125.7V159.625H132.763V169.705H132V166.191ZM121.323 164.068H121.986V165.328H121.323V164.068ZM121.323 168.445H121.986V169.705H121.323V168.445ZM136.543 168.445H137.206V169.705H136.543V168.445ZM136.543 164.068H137.206V165.328H136.543V164.068ZM120.726 158.729H121.323V159.625H120.726V158.729ZM137.305 158.729H137.935V159.625H137.305V158.729ZM136.31 158.729H136.907V159.625H136.31V158.729ZM135.282 158.729H135.88V159.625H135.282V158.729ZM122.781 158.729H123.379V159.625H122.781V158.729ZM121.754 158.729H122.351V159.625H121.754V158.729ZM135.648 166.091H136.575C136.377 166.191 136.178 166.356 136.078 166.422C135.88 166.587 135.615 166.887 135.615 167.185V169.838H138.168V167.185C138.168 166.887 137.869 166.587 137.67 166.422C137.604 166.356 137.372 166.191 137.173 166.091H138.168V165.826H135.648V166.091ZM120.394 161.581H121.522C121.323 161.681 120.958 161.979 120.859 162.046C120.659 162.212 120.361 162.509 120.361 162.808V165.46H122.914V162.808C122.914 162.509 122.616 162.212 122.417 162.046C122.317 161.946 121.986 161.68 121.754 161.581H122.915V161.316H120.394V161.581H120.394ZM120.394 166.091H121.356C121.156 166.191 120.925 166.356 120.859 166.422C120.659 166.587 120.361 166.887 120.361 167.185V169.838H122.914V167.185C122.914 166.887 122.649 166.587 122.417 166.422C122.351 166.356 122.152 166.191 121.953 166.091H122.915V165.826H120.394V166.091H120.394ZM135.581 161.581H136.775C136.543 161.681 136.178 161.946 136.111 162.046C135.88 162.212 135.615 162.509 135.615 162.808V165.46H138.168V162.808C138.168 162.509 137.869 162.212 137.67 162.046C137.571 161.979 137.206 161.68 137.007 161.581H138.068V161.316H135.581V161.581ZM122.184 153.954C122.251 153.988 122.284 154.053 122.284 154.153C122.284 154.252 122.251 154.318 122.184 154.386V155.048H122.284V155.181H122.184H122.118H122.085H121.986V155.048H122.085V154.451C122.052 154.451 122.019 154.451 121.986 154.451C121.886 154.451 121.787 154.352 121.72 154.252C121.787 154.285 121.853 154.318 121.919 154.318C122.085 154.318 122.217 154.186 122.217 154.053C122.218 154.021 122.218 153.988 122.184 153.954ZM122.118 155.181C124.904 156.873 123.478 157.403 123.71 157.734H120.593C120.825 157.37 119.2 156.939 122.118 155.181Z" fill="#D1E1FF"/>
<path fill-rule="evenodd" clip-rule="evenodd" d="M166.062 121.789H165.466V119.203V117.545L165.399 117.61L165.299 117.545V118.904L165.167 118.738L165.035 118.97L164.902 119.203L164.736 118.97L164.603 118.738L164.438 118.97L164.305 119.203L164.14 118.97L164.008 118.738L163.842 118.97L163.709 119.203L163.576 118.97L163.41 118.738L163.278 118.97L163.112 119.203L162.98 118.97L162.815 118.738L162.683 118.97L162.549 119.203L162.382 118.97L162.25 118.738L162.085 118.97L161.952 119.203L161.786 118.97L161.655 118.738L161.489 118.97L161.357 119.203L161.222 118.97L161.057 118.738L160.925 118.97L160.76 119.203L160.627 118.97L160.461 118.738L160.329 118.97L160.197 119.203L160.03 118.97L159.897 118.738L159.732 118.97L159.6 119.203L159.434 118.97L159.302 118.738L159.136 118.97L159.004 119.203L158.871 118.97L158.705 118.738L158.573 118.97L158.407 119.203L158.275 118.97L158.109 118.738L157.977 118.97L157.844 119.203L157.679 118.97L157.547 118.738L157.38 118.97L157.248 119.203L157.082 118.97L156.949 118.738L156.784 118.97L156.651 119.203L156.519 118.97L156.354 118.738L156.22 118.97L156.055 119.203L155.922 118.97L155.756 118.738L155.624 118.97L155.492 119.203L155.326 118.97L155.194 118.738L155.06 118.937V117.545L154.961 117.61L154.861 117.545V119.203V121.789H154.298V120.131L154.232 120.23L154.132 120.131V121.789V133.892H166.235V121.789V120.131L166.135 120.23L166.068 120.131V121.789H166.062ZM166.427 173.649H153.594V165.991H166.427V173.649ZM165.167 165.394V158.231H164.636V165.394H164.238V158.231H163.674V165.394H163.276V158.231H162.747V165.394H162.315V158.231H161.784V165.394H161.355V158.231H160.823V165.394H160.393V158.231H159.862V165.394H159.431V158.231H158.901V165.394H158.503V158.231H157.939V165.394H157.541V158.231H157.01V165.394H156.579V158.231H156.048V165.394H155.617V158.231H155.087V165.394H154.656V150.571H165.599V165.394H165.167ZM164.636 157.833H165.167V150.903H164.636V157.833ZM155.087 157.833H155.616V150.903H155.087V157.833ZM156.048 157.833H156.579V150.903H156.048V157.833ZM157.01 157.833H157.541V150.903H157.01V157.833ZM157.938 157.833H158.502V150.903H157.938V157.833ZM158.9 157.833H159.43V150.903H158.9V157.833ZM159.861 157.833H160.392V150.903H159.861V157.833ZM160.823 157.833H161.354V150.903H160.823V157.833ZM161.784 157.833H162.315V150.903H161.784V157.833ZM162.746 157.833H163.276V150.903H162.746V157.833ZM163.674 157.833H164.238V150.903H163.674V157.833ZM155.352 117.181L154.953 116.848L154.589 117.181L154.953 117.578L155.352 117.181ZM165.763 117.181L165.399 116.848L165.034 117.181L165.399 117.578L165.763 117.181ZM166.494 119.767L166.128 119.435L165.797 119.767L166.128 120.164L166.494 119.767ZM154.555 119.767L154.225 119.435L153.86 119.767L154.225 120.164L154.555 119.767ZM154.853 116.881V116.649H155.052V116.881L154.953 116.781L154.853 116.881ZM165.299 116.881V116.649H165.466V116.881L165.399 116.781L165.299 116.881ZM154.125 119.467V119.203H154.29V119.435L154.225 119.368L154.125 119.467ZM166.062 119.435V119.203H166.228V119.467L166.128 119.368L166.062 119.435ZM157.573 114.958L155.981 118.904L156.015 118.937L156.048 119.003L156.347 118.572L156.579 118.937L156.645 119.004L156.712 118.937L156.943 118.572L157.242 119.037L157.308 118.937L157.541 118.54L157.74 118.937L157.839 119.037L158.104 118.572L158.369 118.937L158.403 119.004L158.469 118.937L158.701 118.572L158.934 118.937L159 119.004L159.067 118.937L159.299 118.572L159.53 118.937L159.597 119.037L159.663 118.937L159.894 118.54L160.095 118.937L160.194 119.037L160.228 118.937L160.459 118.572L160.725 118.937L160.758 119.004L161.056 118.573L161.289 118.938L161.355 119.004L161.422 118.938L161.654 118.573L161.952 119.037L162.018 118.937L162.25 118.54L162.482 118.937L162.549 119.037L162.814 118.573L163.08 118.938L163.112 119.004L163.411 118.573L163.642 118.938L163.709 119.004L163.777 118.938L164.008 118.573L164.307 119.004L164.34 118.938L164.373 118.904L162.781 114.959H157.573V114.958ZM158.103 117.644L157.773 117.079L157.673 116.947L157.241 117.643L157.374 117.71L157.673 117.213L157.938 117.71L158.103 117.644ZM160.591 116.317L160.26 115.72L160.193 115.587L159.761 116.317L159.893 116.384L160.193 115.885L160.458 116.384L160.591 116.317ZM162.248 116.317L161.884 115.72L161.817 115.587L161.387 116.317L161.52 116.384L161.817 115.885L162.083 116.384L162.248 116.317ZM163.078 117.644L162.713 117.079L162.647 116.947L162.248 117.643L162.348 117.71L162.647 117.213L162.945 117.71L163.078 117.644ZM161.387 117.644L161.088 117.079L160.988 116.947L160.558 117.643L160.69 117.71L160.989 117.213L161.288 117.71L161.387 117.644ZM159.728 117.644L159.43 117.079L159.331 116.947L158.9 117.643L159.033 117.71L159.331 117.213L159.596 117.71L159.728 117.644ZM159.099 116.317L158.799 115.72L158.7 115.587L158.269 116.317L158.402 116.384L158.7 115.885L158.966 116.384L159.099 116.317ZM156.545 119.799H155.352V121.424H156.545V119.799ZM164.835 119.799H163.674V121.424H164.835V119.799ZM163.21 119.799H161.983V121.424H163.21V119.799ZM161.553 119.799H160.326V121.424H161.553V119.799ZM159.893 119.799H158.667V121.424H159.893V119.799ZM158.203 119.799H157.01V121.424H158.203V119.799ZM160.657 104.91H159.695V104.214H160.657V104.91ZM157.541 110.25L157.175 109.885L156.81 110.25L157.175 110.614L157.541 110.25ZM163.541 110.25L163.177 109.885L162.812 110.25L163.177 110.614L163.541 110.25ZM162.978 111.675L162.846 111.94L162.713 112.206H162.681L162.58 111.94L162.414 111.675L162.248 111.94L162.149 112.206L162.016 111.94L161.851 111.675L161.719 111.94L161.586 112.206L161.454 111.94L161.321 111.675L161.154 111.94L161.022 112.206L160.89 111.94L160.757 111.675L160.592 111.94L160.492 112.206H160.459L160.326 111.94L160.194 111.675L160.027 111.94L159.928 112.206H159.894L159.762 111.94L159.63 111.675L159.465 111.94L159.364 112.206H159.332L159.199 111.94L159.067 111.675L158.901 111.94L158.801 112.206H158.769L158.635 111.94L158.47 111.675L158.337 111.94L158.205 112.206L158.105 111.94L157.94 111.675L157.775 111.94L157.675 112.206H157.642L157.542 111.94L157.375 111.675L157.276 111.84V110.68L157.176 110.746L157.077 110.68V112.206V114.759H163.277V112.206V110.68L163.178 110.746L163.079 110.68V111.84L162.978 111.675ZM160.193 103.816C160.193 103.916 160.16 104.015 160.16 104.115H160.193C160.193 104.015 160.193 103.916 160.193 103.816ZM160.061 105.011C159.696 107.299 158.634 109.321 157.905 111.476V111.443L158.17 111.907L158.203 111.973L158.468 111.443L158.733 111.907L158.768 111.973L158.8 111.907L159.066 111.443L159.331 111.973L159.364 111.907L159.629 111.443L159.894 111.973L159.927 111.907L160.193 111.443L160.426 111.907L160.458 111.973L160.492 111.907L160.757 111.443L161.022 111.973L161.055 111.907L161.321 111.443L161.586 111.973L161.619 111.907L161.885 111.443L162.083 111.907L162.149 111.973L162.183 111.907L162.415 111.443C162.481 111.343 160.393 105.938 160.26 105.011H160.061ZM160.591 108.127L160.26 107.597L160.193 107.431L159.761 108.127L159.893 108.226L160.193 107.729L160.458 108.226L160.591 108.127ZM159.331 110.979L159.033 110.382L158.934 110.25L158.502 110.979L158.634 111.046L158.934 110.514L159.199 111.046L159.331 110.979ZM160.591 110.979L160.26 110.382L160.193 110.25L159.761 110.979L159.893 111.046L160.193 110.514L160.458 111.046L160.591 110.979ZM161.851 110.979L161.52 110.382L161.42 110.25L160.988 110.979L161.154 111.046L161.42 110.514L161.718 111.046L161.851 110.979ZM159.861 109.619L159.53 109.022L159.43 108.89L159.033 109.619L159.165 109.685L159.43 109.155L159.728 109.685L159.861 109.619ZM161.321 109.619L160.988 109.022L160.922 108.89L160.491 109.619L160.591 109.685L160.922 109.155L161.187 109.685L161.321 109.619ZM157.076 109.852V109.619H157.274V109.852L157.175 109.753L157.076 109.852ZM163.078 109.852V109.619H163.276V109.852L163.177 109.753L163.078 109.852ZM158.336 112.703H157.407V114.361H158.336V112.703ZM162.945 112.703H162.017V114.361H162.945V112.703ZM161.784 112.703H160.856V114.361H161.784V112.703ZM160.657 112.703H159.728V114.361H160.657V112.703ZM159.496 112.703H158.568V114.361H159.496V112.703ZM164.703 149.743H165.234V142.183H164.703V149.743ZM155.12 149.743H155.65V142.183H155.12V149.743ZM156.081 149.743H156.612V142.183H156.081V149.743ZM157.043 149.743H157.574V142.183H157.043V149.743ZM158.005 149.743H158.535V142.183H158.005V149.743ZM158.966 149.743H159.496V142.183H158.966V149.743ZM159.893 149.743H160.458V142.183H159.893V149.743ZM160.856 149.743H161.387V142.183H160.856V149.743ZM161.818 149.743H162.348V142.183H161.818V149.743ZM162.779 149.743H163.309V142.183H162.779V149.743ZM163.741 149.743H164.271V142.183H163.741V149.743ZM164.703 141.783H165.234V134.82H164.703V141.783ZM155.12 141.783H155.65V134.82H155.12V141.783ZM156.081 141.783H156.612V134.82H156.081V141.783ZM157.043 141.783H157.574V134.82H157.043V141.783ZM158.005 141.783H158.535V134.82H158.005V141.783ZM158.966 141.783H159.496V134.82H158.966V141.783ZM159.893 141.783H160.458V134.82H159.893V141.783ZM160.856 141.783H161.387V134.82H160.856V141.783ZM161.818 141.783H162.348V134.82H161.818V141.783ZM162.779 141.783H163.309V134.82H162.779V141.783ZM163.741 141.783H164.271V134.82H163.741V141.783ZM165.631 134.523H154.722V150.041H165.631V134.523ZM156.114 132.864H155.484V133.495H156.114V132.864ZM164.835 132.864H164.205V133.495H164.835V132.864ZM164.039 132.864H163.409V133.495H164.039V132.864ZM163.243 132.864H162.614V133.495H163.243V132.864ZM162.448 132.864H161.818V133.495H162.448V132.864ZM161.653 132.864H161.021V133.495H161.653V132.864ZM160.856 132.864H160.227V133.495H160.856V132.864ZM160.061 132.864H159.43V133.495H160.061V132.864ZM159.265 132.864H158.634V133.495H159.265V132.864ZM158.468 132.864H157.871V133.495H158.468V132.864ZM157.706 132.864H157.076V133.495H157.706V132.864ZM156.91 132.864H156.28V133.495H156.91V132.864ZM160.193 128.221C160.127 128.221 160.061 128.189 159.995 128.189L159.761 128.421C159.728 128.554 159.728 128.653 159.662 128.719C159.629 128.753 159.563 128.753 159.496 128.719C159.43 128.62 159.43 128.62 159.331 128.521C159.265 128.487 159.265 128.421 159.331 128.355C159.397 128.288 159.496 128.254 159.596 128.254L159.861 128.023C159.795 127.99 159.795 127.89 159.795 127.825C159.795 127.791 159.795 127.758 159.795 127.724L157.407 125.171C157.407 125.171 157.407 125.138 157.407 125.105H157.473C157.473 125.073 157.507 125.073 157.507 125.105L160.026 127.46C160.061 127.427 160.127 127.427 160.193 127.427C160.26 127.427 160.359 127.46 160.425 127.493L160.823 127.129C160.79 127.129 160.757 127.095 160.757 127.061C160.69 127.028 160.69 126.928 160.757 126.896C160.823 126.829 160.988 126.796 161.154 126.796L161.22 126.73V126.564H161.453V126.762H161.321L161.22 126.863C161.22 127.028 161.22 127.194 161.154 127.261C161.088 127.294 160.989 127.294 160.956 127.261C160.922 127.227 160.922 127.227 160.922 127.227L160.525 127.625C160.558 127.691 160.591 127.757 160.591 127.824C160.591 127.89 160.558 127.923 160.558 127.956C160.657 128.122 160.856 128.254 161.055 128.321C161.055 128.321 161.088 128.321 161.088 128.355C161.088 128.389 161.088 128.422 161.055 128.422C160.988 128.422 160.988 128.454 160.988 128.488C160.956 128.488 160.956 128.521 160.956 128.554C160.956 128.588 160.922 128.621 160.922 128.621C160.855 128.621 160.822 128.621 160.822 128.654C160.789 128.654 160.756 128.687 160.756 128.72H160.723C160.689 128.753 160.689 128.72 160.656 128.72C160.591 128.488 160.458 128.356 160.259 128.222C160.26 128.221 160.227 128.221 160.193 128.221ZM160.094 124.375C160.026 124.375 159.927 124.375 159.861 124.375L159.828 123.945H159.795C159.894 123.945 159.995 123.945 160.094 123.945V124.375ZM159.662 124.408C159.563 124.441 159.463 124.441 159.363 124.475L159.264 124.044C159.363 124.01 159.496 123.977 159.629 123.977L159.662 124.408ZM159.198 124.507C159.132 124.54 159.066 124.574 158.966 124.574L158.8 124.176C158.9 124.142 158.999 124.11 159.099 124.077L159.198 124.507ZM158.834 124.641C158.733 124.708 158.634 124.74 158.535 124.774L158.303 124.408C158.402 124.342 158.535 124.276 158.667 124.243L158.834 124.641ZM158.368 124.873C158.303 124.939 158.236 124.973 158.17 125.006L157.905 124.641C158.005 124.608 158.071 124.54 158.17 124.475L158.368 124.873ZM158.038 125.105C157.971 125.171 157.938 125.205 157.872 125.238L157.939 125.303C157.972 125.27 158.038 125.204 158.071 125.171H158.104L158.137 125.138C158.236 125.072 158.303 125.006 158.402 124.939H158.435L159.132 126.166C159.066 126.2 159 126.232 158.967 126.266L159.033 126.332C159.332 126.067 159.728 125.934 160.193 125.934C160.657 125.934 161.121 126.133 161.453 126.431H161.586C161.486 126.332 161.387 126.232 161.253 126.166L161.917 124.939H161.95C162.083 125.039 162.182 125.105 162.315 125.205L162.348 125.238C162.415 125.304 162.48 125.37 162.581 125.436C162.647 125.536 162.746 125.635 162.846 125.735V125.768L162.879 125.8C162.945 125.901 163.012 125.967 163.044 126.067L161.851 126.762C161.784 126.663 161.685 126.531 161.619 126.431V126.596C161.884 126.895 162.083 127.36 162.083 127.824C162.083 128.355 161.851 128.818 161.52 129.183C161.154 129.515 160.69 129.748 160.193 129.748C159.662 129.748 159.198 129.515 158.834 129.183C158.468 128.818 158.269 128.355 158.269 127.824C158.269 127.393 158.402 126.994 158.667 126.696L158.6 126.63C158.568 126.663 158.534 126.73 158.501 126.762L157.307 126.066C157.374 125.933 157.473 125.8 157.573 125.701V125.667C157.607 125.667 157.607 125.634 157.64 125.602L157.573 125.535C157.541 125.568 157.541 125.602 157.506 125.634L157.141 125.336C157.208 125.303 157.241 125.269 157.274 125.204V125.17C157.274 125.17 157.274 125.137 157.274 125.104V125.038L157.373 125.005C157.406 124.938 157.473 124.938 157.54 124.938C157.606 124.872 157.672 124.839 157.772 124.773L158.038 125.105ZM157.473 125.701H157.44L157.142 125.436L157.473 125.668V125.701ZM157.407 125.767C157.341 125.835 157.274 125.934 157.242 126.033L157.043 125.901L156.844 125.8C156.91 125.701 156.977 125.569 157.043 125.502H157.076L157.407 125.767ZM157.142 126.166C157.108 126.232 157.076 126.299 157.043 126.398L156.612 126.2C156.645 126.133 156.712 126.034 156.744 125.967L157.142 126.166ZM156.943 126.563C156.91 126.663 156.877 126.762 156.844 126.862L156.446 126.73H156.413C156.446 126.596 156.513 126.498 156.545 126.365L156.943 126.563ZM156.81 127.027C156.777 127.095 156.777 127.161 156.744 127.26L156.314 127.194C156.347 127.095 156.347 126.994 156.38 126.895V126.927L156.81 127.027ZM156.744 127.327L156.347 127.294V127.26L156.744 127.327ZM156.744 127.427C156.712 127.525 156.712 127.625 156.712 127.724H156.28C156.28 127.592 156.28 127.493 156.314 127.36L156.744 127.427ZM156.712 127.923C156.712 127.989 156.712 128.088 156.744 128.155L156.28 128.189C156.28 128.088 156.28 128.023 156.28 127.923H156.712ZM156.744 128.321C156.778 128.421 156.778 128.553 156.811 128.653L156.38 128.753C156.347 128.62 156.314 128.521 156.314 128.388L156.744 128.321ZM156.844 128.818C156.877 128.885 156.91 128.951 156.943 129.017L156.513 129.182V129.216C156.48 129.117 156.446 129.017 156.413 128.918H156.446L156.844 128.818ZM156.977 129.117L156.612 129.282V129.249L156.977 129.117ZM157.01 129.183C157.043 129.283 157.076 129.382 157.142 129.482L156.744 129.715C156.678 129.614 156.645 129.482 156.579 129.382L156.612 129.348L157.01 129.183ZM157.242 129.648C157.275 129.715 157.307 129.78 157.374 129.813L156.977 130.079C156.943 130.012 156.877 129.946 156.845 129.847L157.242 129.648ZM157.473 129.946C157.541 130.046 157.607 130.112 157.673 130.211L157.374 130.543H157.341C157.274 130.443 157.175 130.344 157.109 130.245L157.473 129.946ZM157.806 130.343C157.872 130.377 157.905 130.443 157.971 130.476L157.706 130.842H157.673C157.607 130.774 157.541 130.708 157.473 130.642L157.806 130.343ZM158.103 130.609C158.203 130.675 158.269 130.708 158.368 130.774L158.17 131.173H158.137C158.038 131.106 157.938 131.04 157.838 130.941L158.103 130.609ZM158.535 130.875C158.601 130.908 158.667 130.941 158.733 130.975L158.568 131.372C158.468 131.339 158.369 131.305 158.303 131.24L158.535 130.875ZM158.9 131.041C158.999 131.073 159.099 131.107 159.198 131.14L159.099 131.571C158.966 131.537 158.834 131.505 158.733 131.471L158.9 131.041ZM159.265 131.173L159.198 131.537H159.165L159.265 131.173ZM159.364 131.207C159.431 131.207 159.53 131.24 159.596 131.24L159.53 131.67C159.43 131.67 159.331 131.636 159.265 131.636L159.364 131.207ZM159.662 131.272H159.695L159.629 131.637L159.662 131.272ZM159.761 131.272C159.861 131.272 159.995 131.305 160.094 131.305V131.737C159.961 131.737 159.828 131.737 159.696 131.703L159.761 131.272ZM160.26 131.305C160.326 131.305 160.425 131.305 160.491 131.272L160.558 131.703V131.737C160.458 131.737 160.359 131.737 160.26 131.737V131.305ZM160.69 131.272C160.79 131.24 160.889 131.24 160.988 131.207L161.088 131.636C160.988 131.67 160.856 131.67 160.723 131.703L160.69 131.272ZM161.088 131.173L161.187 131.537H161.154L161.088 131.173ZM161.154 131.14C161.22 131.14 161.288 131.107 161.387 131.073L161.553 131.471V131.505C161.453 131.537 161.387 131.571 161.288 131.571L161.154 131.14ZM161.453 131.041H161.486L161.619 131.406L161.453 131.041ZM161.553 131.008C161.653 130.975 161.751 130.908 161.818 130.876L162.05 131.24V131.272C161.95 131.305 161.818 131.372 161.718 131.438V131.405L161.553 131.008ZM161.983 130.775C162.05 130.741 162.116 130.708 162.182 130.643L162.447 131.008C162.381 131.074 162.282 131.107 162.215 131.173L161.983 130.775ZM162.315 130.543C162.415 130.476 162.48 130.411 162.548 130.344L162.879 130.643C162.779 130.742 162.681 130.842 162.581 130.908L162.315 130.543ZM162.681 130.211C162.747 130.144 162.78 130.079 162.813 130.046L163.178 130.31C163.145 130.377 163.078 130.444 163.012 130.509L162.681 130.211ZM162.945 129.88C163.012 129.813 163.078 129.715 163.111 129.614L163.509 129.847C163.443 129.979 163.377 130.079 163.31 130.178H163.276L162.945 129.88ZM163.21 129.482C163.243 129.415 163.276 129.348 163.309 129.283L163.741 129.448C163.674 129.547 163.641 129.614 163.608 129.715H163.575L163.21 129.482ZM163.376 129.117C163.409 129.017 163.475 128.918 163.475 128.818L163.907 128.918H163.941C163.874 129.051 163.841 129.183 163.808 129.283L163.376 129.117ZM163.541 128.653C163.541 128.587 163.575 128.487 163.575 128.421L164.039 128.487C164.006 128.554 164.006 128.653 163.973 128.753L163.541 128.653ZM163.608 128.321L164.006 128.388H163.973L163.608 128.321ZM163.608 128.221C163.641 128.122 163.641 128.023 163.641 127.923H164.073C164.073 128.055 164.073 128.155 164.039 128.288L163.608 128.221ZM163.641 127.724C163.641 127.659 163.641 127.592 163.608 127.525L164.073 127.459C164.073 127.525 164.073 127.625 164.073 127.724H163.641ZM163.608 127.427V127.393L164.006 127.36V127.393L163.608 127.427ZM163.608 127.327C163.575 127.227 163.575 127.128 163.541 127.027L163.973 126.928V126.895C164.006 127.027 164.039 127.161 164.039 127.294L163.608 127.327ZM163.508 126.862C163.475 126.762 163.442 126.696 163.409 126.63L163.84 126.464C163.873 126.564 163.907 126.63 163.907 126.73L163.508 126.862ZM163.376 126.531L163.741 126.365V126.398L163.376 126.531ZM163.343 126.464C163.309 126.365 163.276 126.265 163.21 126.166L163.575 125.967H163.608C163.674 126.066 163.708 126.199 163.775 126.299L163.343 126.464ZM163.111 126.033C163.078 125.967 163.044 125.901 163.012 125.835L163.343 125.569C163.409 125.635 163.475 125.734 163.508 125.8L163.111 126.033ZM162.879 125.668C162.813 125.602 162.747 125.535 162.681 125.436L163.012 125.138C163.078 125.238 163.177 125.337 163.244 125.403V125.436L162.879 125.668ZM162.548 125.337C162.514 125.27 162.448 125.205 162.381 125.171L162.647 124.807C162.714 124.873 162.813 124.939 162.879 125.005L162.548 125.337ZM162.315 125.105L162.581 124.807L162.348 125.105H162.315ZM162.248 125.072C162.149 125.005 162.083 124.939 161.983 124.873L162.215 124.507C162.315 124.574 162.414 124.641 162.514 124.708L162.248 125.072ZM161.818 124.807C161.751 124.74 161.685 124.708 161.619 124.675L161.784 124.276C161.884 124.309 161.95 124.342 162.05 124.409L161.818 124.807ZM161.453 124.608C161.354 124.574 161.253 124.54 161.154 124.507L161.287 124.077C161.387 124.11 161.519 124.176 161.619 124.209L161.453 124.608ZM160.988 124.474C160.922 124.441 160.823 124.441 160.757 124.408L160.823 123.977C160.922 124.01 161.021 124.01 161.088 124.044L160.988 124.474ZM160.69 124.408H160.657L160.723 124.01L160.69 124.408ZM160.591 124.408C160.491 124.375 160.359 124.375 160.26 124.375V123.945C160.392 123.945 160.525 123.945 160.657 123.945L160.591 124.408ZM158.568 124.873C158.667 124.807 158.733 124.773 158.834 124.708H158.867L158.967 124.675C159.067 124.641 159.132 124.608 159.232 124.574H159.265L159.332 124.54H159.397C159.497 124.507 159.597 124.507 159.696 124.474H159.729H159.829H159.862V124.441C159.928 124.441 160.027 124.441 160.094 124.441V125.835C159.795 125.867 159.497 125.934 159.265 126.066L158.568 124.873ZM160.26 124.441C160.359 124.441 160.458 124.441 160.558 124.474H160.591H160.69H160.724C160.823 124.507 160.889 124.507 160.956 124.54H160.989L161.089 124.574H161.122C161.22 124.608 161.321 124.641 161.421 124.675V124.708H161.454C161.487 124.708 161.521 124.74 161.554 124.74L161.587 124.774C161.653 124.774 161.719 124.841 161.785 124.874L161.089 126.067C160.824 125.934 160.559 125.868 160.26 125.836V124.441H160.26ZM163.144 126.232C163.211 126.332 163.244 126.431 163.276 126.531L163.31 126.563C163.31 126.596 163.31 126.63 163.343 126.63V126.663C163.377 126.762 163.41 126.895 163.443 127.028C163.509 127.261 163.542 127.493 163.542 127.757H162.149C162.149 127.459 162.05 127.161 161.951 126.928L163.144 126.232ZM163.541 127.923C163.541 128.023 163.541 128.122 163.508 128.221C163.508 128.355 163.475 128.487 163.442 128.62C163.376 128.918 163.276 129.183 163.144 129.448L161.917 128.753C162.049 128.487 162.116 128.221 162.149 127.923H163.541ZM163.044 129.581C163.012 129.681 162.945 129.78 162.879 129.88L162.813 129.946L162.779 129.979C162.713 130.046 162.681 130.112 162.647 130.144L162.58 130.178L162.547 130.245L162.48 130.278H162.514C162.414 130.344 162.347 130.411 162.281 130.476H162.248V130.509L162.215 130.543C162.115 130.609 162.049 130.643 161.95 130.708L161.253 129.482C161.354 129.415 161.486 129.316 161.586 129.216C161.685 129.117 161.784 129.017 161.851 128.885L163.044 129.581ZM161.784 130.809C161.718 130.842 161.619 130.908 161.52 130.941V130.908L161.453 130.941L161.42 130.975L161.354 131.008C161.287 131.008 161.22 131.041 161.154 131.073H161.121C161.088 131.073 161.021 131.107 160.988 131.107H160.956C160.823 131.14 160.723 131.173 160.591 131.173H160.524C160.425 131.207 160.359 131.207 160.259 131.207V129.814C160.557 129.78 160.822 129.715 161.088 129.582L161.784 130.809ZM160.094 131.207C159.995 131.207 159.894 131.207 159.795 131.173C159.761 131.173 159.728 131.173 159.695 131.173H159.662H159.629C159.529 131.14 159.463 131.14 159.397 131.107C159.231 131.073 159.066 131.007 158.9 130.941H158.867C158.768 130.908 158.667 130.842 158.568 130.809L159.264 129.581C159.529 129.715 159.795 129.78 160.094 129.813L160.094 131.207ZM158.402 130.708C158.336 130.675 158.236 130.609 158.137 130.543H158.17L158.137 130.509L158.038 130.476V130.443H158.004C157.971 130.377 157.905 130.343 157.838 130.278H157.871L157.838 130.245L157.773 130.178L157.706 130.144C157.64 130.079 157.573 130.012 157.506 129.914L157.44 129.813L157.406 129.78C157.373 129.714 157.34 129.648 157.307 129.581H157.274L158.501 128.885C158.6 129.017 158.666 129.117 158.799 129.216C158.899 129.316 158.999 129.415 159.131 129.515L158.402 130.708ZM157.209 129.448C157.142 129.348 157.108 129.249 157.076 129.117H157.043C157.009 129.017 156.976 128.885 156.943 128.786C156.91 128.719 156.91 128.686 156.91 128.62C156.844 128.388 156.81 128.155 156.81 127.923H158.203C158.203 128.221 158.303 128.487 158.435 128.753L157.209 129.448ZM156.81 127.757C156.81 127.659 156.81 127.525 156.844 127.427C156.844 127.36 156.844 127.327 156.844 127.261C156.877 127.194 156.877 127.095 156.91 127.028C156.91 126.961 156.91 126.928 156.943 126.896V126.863C156.977 126.762 157.01 126.664 157.043 126.597L157.076 126.531V126.498C157.076 126.464 157.109 126.464 157.109 126.431C157.142 126.365 157.175 126.299 157.209 126.232L158.435 126.928C158.303 127.194 158.204 127.459 158.204 127.757H156.81ZM164.669 123.314H160.193C162.647 123.314 164.669 125.337 164.669 127.824V123.314ZM161.154 124.077H161.187L161.088 124.475L161.154 124.077ZM162.879 125.105H162.912L162.647 125.403L162.614 125.37L162.879 125.105ZM162.912 130.543L162.879 130.576L162.614 130.278H162.647L162.912 130.543ZM157.473 130.575L157.44 130.542L157.706 130.278H157.739L157.473 130.575ZM159.165 124.077H159.198L159.265 124.475L159.165 124.077ZM163.276 125.502L162.945 125.767V125.734L163.276 125.502ZM158.667 131.405L158.634 131.372L158.799 131.007L158.667 131.405ZM157.773 130.875V130.842L158.038 130.542L157.773 130.875ZM157.871 124.74V124.708L158.103 125.039V125.072L157.871 124.74ZM158.733 124.242L158.9 124.608L158.867 124.641L158.733 124.242ZM160.193 123.314H155.683V127.824C155.683 125.337 157.706 123.314 160.193 123.314ZM155.683 127.824V132.334H160.193C157.706 132.334 155.683 130.31 155.683 127.824ZM160.193 132.334L164.669 132.334V127.824C164.669 130.31 162.647 132.334 160.193 132.334ZM160.193 132.102C157.838 132.102 155.915 130.178 155.915 127.824C155.915 125.503 157.839 123.581 160.193 123.581C162.514 123.581 164.437 125.503 164.437 127.824C164.437 130.178 162.514 132.102 160.193 132.102ZM163.974 131.836C163.775 131.836 163.641 131.704 163.641 131.471C163.641 131.305 163.775 131.173 163.974 131.173C164.139 131.173 164.305 131.305 164.305 131.471C164.305 131.703 164.139 131.836 163.974 131.836ZM163.974 124.408C163.775 124.408 163.641 124.243 163.641 124.077C163.641 123.878 163.775 123.746 163.974 123.746C164.139 123.746 164.305 123.878 164.305 124.077C164.305 124.242 164.139 124.408 163.974 124.408ZM156.446 124.408C156.247 124.408 156.114 124.243 156.114 124.077C156.114 123.878 156.246 123.746 156.446 123.746C156.645 123.746 156.778 123.878 156.778 124.077C156.778 124.242 156.645 124.408 156.446 124.408ZM156.446 131.836C156.247 131.836 156.114 131.704 156.114 131.471C156.114 131.305 156.246 131.173 156.446 131.173C156.645 131.173 156.778 131.305 156.778 131.471C156.778 131.703 156.645 131.836 156.446 131.836ZM164.801 123.18V132.466H155.551V123.18H164.801ZM164.835 122.187H164.205V122.849H164.835V122.187ZM156.114 122.187H155.484V122.849H156.114V122.187ZM156.91 122.187H156.28V122.849H156.91V122.187ZM157.706 122.187H157.076V122.849H157.706V122.187ZM158.468 122.187H157.871V122.849H158.468V122.187ZM159.265 122.187H158.634V122.849H159.265V122.187ZM160.061 122.187H159.43V122.849H160.061V122.187ZM160.856 122.187H160.227V122.849H160.856V122.187ZM161.653 122.187H161.021V122.849H161.653V122.187ZM162.448 122.187H161.818V122.849H162.448V122.187ZM163.243 122.187H162.614V122.849H163.243V122.187ZM164.039 122.187H163.409V122.849H164.039V122.187ZM155.12 133.428H155.252V122.187H155.12V133.428ZM154.456 133.428H154.622V122.187H154.456V133.428ZM154.788 133.428H154.953V122.187H154.788V133.428ZM165.101 133.428H165.299V122.187H165.101V133.428ZM165.763 133.428H165.929V122.187H165.763V133.428ZM165.433 133.428H165.598V122.187H165.433V133.428Z" fill="#D1E1FF"/>
<path fill-rule="evenodd" clip-rule="evenodd" d="M288.323 132.434V131.969L286.964 131.306V133.595L288.323 132.434ZM258.38 120.098H268.294V122.984H258.38V120.098ZM268.295 123.448V127.858H258.38V123.448H268.295ZM268.295 128.554V136.479H258.38V128.554H268.295ZM260.9 120.994H262.591V121.359H260.9V120.994ZM266.704 124.874V126.896H265.111V124.874C265.111 124.508 265.509 124.21 265.907 124.21C266.371 124.21 266.704 124.508 266.704 124.874ZM264.184 124.874V126.896H262.591V124.874C262.591 124.508 262.923 124.21 263.387 124.21C263.818 124.21 264.184 124.508 264.184 124.874ZM261.63 124.874V126.896H260.037V124.874C260.037 124.508 260.37 124.21 260.834 124.21C261.264 124.21 261.63 124.508 261.63 124.874ZM264.117 130.776H265.808V131.108H264.117V130.776ZM262.027 130.843H263.718V131.174H262.027V130.843ZM263.221 131.273H264.912V131.638H263.221V131.273ZM264.217 131.903H265.907V132.269H264.217V131.903ZM262.226 131.903H263.917V132.269H262.226V131.903ZM260.933 135.286H262.591V135.65H260.933V135.286ZM260.104 134.855H261.796V135.219H260.104V134.855ZM259.276 134.39H260.967V134.723H259.276V134.39ZM265.708 134.291H267.399V134.656H265.708V134.291ZM264.747 120.595H266.437V120.961H264.747V120.595ZM262.094 121.823H263.785V122.188H262.094V121.823ZM245.414 145.897H262.194V159.028H245.414V145.897ZM262.194 159.592V173.65H245.414V159.592H262.194ZM257.75 169.97H260.602V170.568H257.75V169.97ZM255.064 163.968H257.916V164.566H255.064V163.968ZM251.582 164.101H254.434V164.699H251.582V164.101ZM253.572 164.864H256.423V165.46H253.572V164.864ZM255.229 165.925H258.082V166.522H255.229V165.925ZM251.881 165.925H254.7V166.522H251.881V165.925ZM249.626 171.661H252.478V172.258H249.626V171.661ZM248.267 170.899H251.118V171.495H248.267V170.899ZM246.907 170.102H249.759V170.733H246.907V170.102ZM250.82 154.021V157.436H248.134V154.021C248.134 153.391 248.73 152.86 249.494 152.86C250.222 152.86 250.82 153.391 250.82 154.021ZM259.507 154.021V157.436H256.822V154.021C256.822 153.391 257.386 152.86 258.148 152.86C258.877 152.86 259.507 153.391 259.507 154.021ZM255.163 154.021V157.436H252.477V154.021C252.477 153.391 253.074 152.86 253.804 152.86C254.567 152.86 255.163 153.391 255.163 154.021ZM249.593 147.456H252.445V148.051H249.593V147.456ZM256.158 146.758H259.009V147.356H256.158V146.758ZM251.615 148.814H254.467V149.445H251.615V148.814ZM245.414 150.406H262.194V151.004H245.414V150.406ZM263.387 113.268L260.071 116.054H266.902L263.387 113.268ZM266.239 116.153V119.867H260.768V116.153H266.239ZM262.89 117.579H264.017V116.484H262.89V117.579ZM291.871 129.582L287.196 133.528H296.878L291.871 129.582ZM295.817 133.794V139.066H298.769V161.979H284.874V139.066H288.223V133.794H295.817ZM291.175 135.584H292.734V134.026H291.175V135.584ZM288.356 140.359H290.71V140.823H288.356V140.359ZM296.547 145.798V148.583H294.325V145.798C294.325 145.266 294.789 144.836 295.42 144.836C296.016 144.836 296.547 145.266 296.547 145.798ZM292.966 145.798V148.583H290.744V145.798C290.744 145.266 291.241 144.836 291.838 144.836C292.435 144.836 292.966 145.266 292.966 145.798ZM289.385 145.798V148.583H287.162V145.798C287.162 145.266 287.661 144.836 288.257 144.836C288.887 144.836 289.385 145.266 289.385 145.798ZM292.866 153.988H295.221V154.485H292.866V153.988ZM289.98 154.086H292.335V154.585H289.98V154.086ZM291.64 154.717H294.027V155.247H291.64V154.717ZM293.032 155.613H295.386V156.109H293.032V155.613ZM290.213 155.613H292.601V156.109H290.213V155.613ZM288.389 160.354H290.744V160.852H288.389V160.354ZM287.262 159.724H289.616V160.221H287.262V159.724ZM286.134 159.093H288.489V159.592H286.134V159.093ZM295.121 158.961H297.475V159.426H295.121V158.961ZM293.762 139.796H296.115V140.259H293.762V139.796ZM290.047 141.487H292.402V141.984H290.047V141.487ZM284.874 142.78H298.769V143.443H284.874V142.78ZM284.874 149.942H298.769V151.334H284.874V149.942ZM253.837 134.423L248.167 139.165H259.905L253.837 134.423ZM258.645 139.43V145.432H249.427V139.43H258.645ZM253.009 141.686H254.898V139.796H253.009V141.686ZM262.624 155.149L263.089 154.916V158.464L263.851 158.133V154.585L265.443 153.822V157.37L266.172 157.006V153.458L267.764 152.694V156.242L268.527 155.878V152.33L270.119 151.566V155.114L270.848 154.75V151.202L272.44 150.439V153.987L273.203 153.656V150.074L274.794 149.311V152.859L275.524 152.528V148.98L277.116 148.184V151.732L277.878 151.401V147.853L279.437 147.09V150.638L280.199 150.273V146.725L281.791 145.963V149.511L282.52 149.146V145.598L284.112 144.835V148.384L284.444 148.251V160.188L262.624 170.667L262.624 155.149ZM286.964 133.595V134.324L286.334 134.026V130.975L284.94 130.311V133.396L284.311 133.064V130.013L282.952 129.349V132.434L282.287 132.103V129.051L280.961 128.389V131.473L280.299 131.141V128.09L278.938 127.46V130.477L278.309 130.179V127.129L276.916 126.465V129.516L276.285 129.217V126.167L274.925 125.503V128.555L274.296 128.255V125.206L272.903 124.542V127.593L272.272 127.295V124.243L270.913 123.581V126.631L270.25 126.333V123.281L268.923 122.619V125.669L268.757 125.603V135.883L284.443 143.41V138.635H287.957V133.595H286.964V133.595Z" fill="#D1E1FF"/>
<path fill-rule="evenodd" clip-rule="evenodd" d="M107.299 119.436L106.768 124.41L89.161 122.487L89.6909 117.513L107.299 119.436ZM93.2722 164.832C102.457 164.832 110.383 168.479 113.599 173.651H72.8789C76.1619 168.479 84.0537 164.832 93.2722 164.832ZM85.447 151.402L104.149 153.458L104.05 154.586L85.3139 152.53L85.447 151.402ZM92.6753 109.654L106.138 111.113L106.238 110.119L92.7744 108.659L92.6753 109.654ZM89.3265 115.821L108.062 117.844L107.929 119.005L89.2271 116.949L89.3265 115.821ZM88.5637 122.917L107.266 124.974L107.166 126.135L88.4306 124.079L88.5637 122.917ZM87.8009 130.047L106.503 132.103L106.371 133.23L87.6686 131.208L87.8009 130.047ZM87.0052 137.144L105.74 139.199L105.575 140.36L86.8725 138.304L87.0052 137.144ZM86.2423 144.272L104.944 146.329L104.812 147.489L86.11 145.432L86.2423 144.272ZM104.381 117.115L105.011 111.412L93.7035 110.184L93.0734 115.887L104.381 117.115ZM96.6879 113.003L96.4883 115.026L94.5321 114.827L94.7317 112.804C94.7982 112.241 95.2949 111.809 95.8253 111.875C96.356 111.942 96.7544 112.439 96.6879 113.003ZM103.419 113.766L103.187 115.788L101.231 115.556L101.463 113.534C101.53 112.97 102.027 112.572 102.557 112.638C103.088 112.671 103.486 113.168 103.419 113.766ZM100.07 113.401L99.8382 115.424L97.882 115.192L98.1138 113.168C98.147 112.605 98.6441 112.174 99.2081 112.274C99.7388 112.307 100.103 112.804 100.07 113.401ZM91.5145 118.707L91.1504 121.989L89.9896 121.857L90.354 118.574C90.3876 118.309 90.6526 118.11 90.9841 118.142C91.316 118.176 91.5477 118.408 91.5145 118.707ZM102.889 149.047L102.491 152.331L101.363 152.198L101.728 148.915C101.761 148.649 102.026 148.451 102.358 148.484C102.656 148.55 102.889 148.783 102.889 149.047ZM101.264 148.848L100.899 152.165L99.7392 152.032L100.104 148.749C100.136 148.484 100.402 148.285 100.733 148.319C101.065 148.351 101.297 148.617 101.264 148.848ZM99.639 148.716L99.2743 151.966L98.1467 151.866L98.4785 148.55C98.5118 148.285 98.8097 148.119 99.1416 148.152C99.4398 148.186 99.6719 148.418 99.639 148.716ZM98.0476 148.517L97.6821 151.799L96.522 151.666L96.8867 148.385C96.92 148.118 97.1854 147.953 97.5165 147.953C97.8484 148.02 98.0801 148.252 98.0476 148.517ZM96.4222 148.318L96.0578 151.633L94.9302 151.501L95.2613 148.219C95.2946 147.953 95.5932 147.754 95.8918 147.787C96.2233 147.821 96.4554 148.085 96.4222 148.318ZM94.8307 148.186L94.466 151.434L93.3051 151.335L93.637 148.019C93.6702 147.754 93.9681 147.589 94.3004 147.621C94.6315 147.655 94.864 147.886 94.8307 148.186ZM93.2057 147.986L92.8416 151.269L91.6808 151.137L92.0452 147.886C92.0781 147.589 92.3767 147.423 92.6749 147.423C93.0072 147.489 93.2389 147.721 93.2057 147.986ZM91.581 147.821L91.2495 151.103L90.0557 150.971L90.4209 147.687C90.4541 147.423 90.7524 147.224 91.0839 147.257C91.3821 147.29 91.6146 147.555 91.581 147.821ZM89.9896 147.655L89.6248 150.938L88.4639 150.805L88.8287 147.522C88.862 147.257 89.1606 147.059 89.4588 147.092C89.7578 147.125 90.0228 147.357 89.9896 147.655ZM88.3645 147.456L88.0333 150.739L86.84 150.606L87.2044 147.357C87.2373 147.058 87.503 146.893 87.8341 146.893C88.1657 146.96 88.3978 147.191 88.3645 147.456ZM103.651 141.852L103.319 145.135L102.126 145.002L102.49 141.718C102.524 141.454 102.789 141.288 103.121 141.288C103.452 141.354 103.684 141.586 103.651 141.852ZM102.059 141.686L101.662 144.969L100.534 144.836L100.899 141.553C100.932 141.288 101.197 141.09 101.529 141.123C101.827 141.155 102.059 141.421 102.059 141.686ZM100.435 141.52L100.07 144.803L98.9091 144.671L99.2743 141.354C99.3071 141.123 99.5721 140.924 99.904 140.957C100.236 140.99 100.468 141.222 100.435 141.52ZM98.8429 141.322L98.4456 144.604L97.318 144.506L97.6492 141.222C97.7153 140.924 97.9807 140.758 98.3122 140.758C98.6112 140.824 98.8429 141.056 98.8429 141.322ZM97.2186 141.155L96.8531 144.439L95.693 144.305L96.0581 141.023C96.0914 140.758 96.3564 140.559 96.6883 140.591C97.0194 140.624 97.2515 140.891 97.2186 141.155ZM95.5936 140.99L95.2288 144.272L94.1016 144.139L94.4327 140.824C94.466 140.591 94.765 140.392 95.0628 140.426C95.3947 140.459 95.6268 140.691 95.5936 140.99ZM94.0018 140.792L93.637 144.073L92.4761 143.974L92.8416 140.691C92.8416 140.392 93.1391 140.226 93.4714 140.226C93.8029 140.293 94.0343 140.525 94.0018 140.792ZM92.3767 140.624L92.0119 143.908L90.8843 143.775L91.2162 140.492C91.2491 140.226 91.5473 140.028 91.846 140.095C92.1779 140.094 92.4103 140.36 92.3767 140.624ZM90.7524 140.459L90.4209 143.742L89.2271 143.609L89.5915 140.293C89.6248 140.061 89.9234 139.862 90.2545 139.896C90.5535 139.929 90.8182 140.161 90.7524 140.459ZM89.1606 140.26L88.7958 143.544L87.6349 143.443L87.9997 140.161C88.033 139.862 88.3316 139.697 88.6302 139.697C88.9281 139.763 89.1942 139.995 89.1606 140.26ZM104.447 134.656L104.083 137.939L102.922 137.839L103.286 134.524C103.319 134.258 103.585 134.092 103.916 134.125C104.215 134.159 104.48 134.391 104.447 134.656ZM102.823 134.49L102.49 137.773L101.297 137.64L101.662 134.357C101.695 134.092 101.993 133.893 102.292 133.927C102.623 133.96 102.855 134.224 102.823 134.49ZM101.231 134.325L100.866 137.607L99.7056 137.475L100.07 134.192C100.103 133.927 100.369 133.728 100.7 133.761C100.999 133.795 101.231 134.027 101.231 134.325ZM99.6058 134.125L99.2414 137.409L98.0805 137.309L98.446 134.027C98.4789 133.728 98.7439 133.563 99.0758 133.595C99.4066 133.629 99.639 133.86 99.6058 134.125ZM98.014 133.96L97.6155 137.242L96.4879 137.11L96.8202 133.827C96.8864 133.562 97.1517 133.363 97.4832 133.396C97.7815 133.43 98.014 133.694 98.014 133.96ZM96.3889 133.795L96.0245 137.077L94.864 136.944L95.2284 133.662C95.2613 133.397 95.527 133.197 95.8582 133.231C96.1904 133.264 96.4222 133.529 96.3889 133.795ZM94.7646 133.629L94.3994 136.877L93.2718 136.778L93.6033 133.496C93.6366 133.197 93.9349 133.031 94.2668 133.065C94.5654 133.097 94.7978 133.33 94.7646 133.629ZM93.1728 133.43L92.808 136.711L91.6475 136.579L92.0119 133.298C92.0119 133.031 92.3105 132.832 92.6421 132.899C92.9739 132.931 93.2057 133.163 93.1728 133.43ZM91.5477 133.264L91.1833 136.546L90.0557 136.414L90.388 133.13C90.4209 132.866 90.7191 132.667 91.0177 132.7C91.3489 132.732 91.581 132.998 91.5477 133.264ZM89.9563 133.097L89.5915 136.347L88.3978 136.248L88.7625 132.965C88.7958 132.667 89.0937 132.501 89.4256 132.535C89.7578 132.567 89.9896 132.799 89.9563 133.097ZM105.209 127.494L104.878 130.743L103.717 130.644L104.082 127.328C104.082 127.062 104.38 126.897 104.679 126.929C105.011 126.962 105.276 127.196 105.209 127.494ZM103.618 127.295L103.253 130.577L102.092 130.445L102.458 127.196C102.491 126.897 102.756 126.731 103.088 126.731C103.386 126.797 103.651 127.029 103.618 127.295ZM101.993 127.097L101.662 130.412L100.468 130.279L100.866 126.996C100.866 126.731 101.164 126.532 101.462 126.598C101.794 126.598 102.026 126.864 101.993 127.097ZM100.402 126.962L100.036 130.246L98.8762 130.114L99.241 126.797C99.2743 126.565 99.5392 126.367 99.8708 126.4C100.169 126.432 100.402 126.665 100.402 126.962ZM98.7768 126.764L98.4124 130.047L97.2515 129.915L97.6159 126.665C97.6492 126.367 97.9146 126.201 98.2461 126.201C98.578 126.267 98.8097 126.499 98.7768 126.764ZM97.1854 126.598L96.7873 129.882L95.6597 129.749L95.9916 126.465C96.0578 126.201 96.3227 126.002 96.655 126.068C96.9529 126.068 97.1854 126.333 97.1854 126.598ZM95.5599 126.432L95.1951 129.716L94.0343 129.583L94.3998 126.3C94.4327 126.035 94.6984 125.837 95.0299 125.869C95.3618 125.903 95.5936 126.135 95.5599 126.432ZM93.9356 126.233L93.5712 129.516L92.4436 129.383L92.7747 126.135C92.842 125.837 93.107 125.669 93.4385 125.669C93.7368 125.736 93.9685 125.969 93.9356 126.233ZM92.3442 126.068L91.979 129.35L90.8182 129.218L91.1833 125.935C91.2166 125.669 91.4816 125.47 91.8135 125.537C92.1446 125.537 92.3767 125.802 92.3442 126.068ZM90.7187 125.903L90.354 129.184L89.2267 129.052L89.5579 125.769C89.5911 125.504 89.8901 125.305 90.1884 125.339C90.5199 125.372 90.7524 125.604 90.7187 125.903ZM106.006 120.298L105.64 123.582L104.48 123.449L104.845 120.133C104.878 119.901 105.176 119.702 105.508 119.735C105.806 119.768 106.039 120.001 106.006 120.298ZM104.381 120.099L104.05 123.383L102.889 123.282L103.253 120C103.253 119.701 103.552 119.535 103.85 119.535C104.182 119.601 104.447 119.834 104.381 120.099ZM102.789 119.934L102.425 123.216L101.264 123.083L101.628 119.801C101.662 119.535 101.927 119.336 102.259 119.403C102.59 119.403 102.823 119.669 102.789 119.934ZM101.164 119.768L100.833 123.05L99.6394 122.918L100.037 119.634C100.037 119.37 100.336 119.171 100.634 119.205C100.966 119.237 101.231 119.469 101.164 119.768ZM99.5721 119.568L99.2077 122.851L98.0476 122.752L98.4124 119.468C98.4457 119.17 98.7106 119.005 99.0425 119.005C99.3408 119.071 99.5721 119.303 99.5721 119.568ZM97.9478 119.403L97.583 122.685L96.4222 122.553L96.787 119.27C96.8202 119.005 97.0852 118.806 97.4171 118.873C97.7486 118.873 97.9807 119.137 97.9478 119.403ZM96.356 119.237L95.9916 122.52L94.8307 122.388L95.1951 119.104C95.2284 118.84 95.4938 118.641 95.8253 118.674C96.1239 118.707 96.356 118.938 96.356 119.237ZM94.7317 119.038L94.3665 122.32L93.2057 122.222L93.5712 118.938C93.6041 118.64 93.8691 118.475 94.2013 118.508C94.5321 118.542 94.7646 118.773 94.7317 119.038ZM93.1395 118.873L92.7415 122.155L91.615 122.023L91.9461 118.74C92.0123 118.475 92.278 118.275 92.6092 118.341C92.9078 118.341 93.1395 118.607 93.1395 118.873ZM106.536 126.565L106.006 131.506L88.3978 129.583L88.9281 124.642L106.536 126.565ZM105.773 133.694L105.209 138.636L87.6017 136.712L88.1653 131.771L105.773 133.694ZM104.978 140.824L104.447 145.765L86.84 143.842L87.3703 138.901L104.978 140.824ZM104.215 147.919L103.652 152.894L86.0771 150.971L86.6071 145.997L104.215 147.919ZM103.419 155.049L102.292 165.528C102.026 165.461 101.761 165.395 101.462 165.295L102.325 157.635C102.391 156.874 101.728 156.21 100.799 156.078C99.8708 155.978 99.075 156.508 99.0081 157.304L98.2128 164.666C97.9145 164.632 97.6492 164.599 97.3506 164.566L98.1463 157.205C98.2124 156.442 97.5494 155.746 96.6543 155.646C95.7588 155.546 94.9298 156.078 94.8636 156.84L94.0339 164.334C93.7689 164.301 93.5039 164.301 93.2718 164.301H93.1724L94.0014 156.74C94.0675 155.978 93.4041 155.281 92.5094 155.181C91.5806 155.082 90.7849 155.613 90.6855 156.375L89.8236 164.467C89.525 164.5 89.2267 164.532 88.9281 164.566L89.8236 156.276C89.923 155.546 89.2267 154.817 88.3312 154.717C87.4361 154.618 86.6064 155.148 86.5402 155.944L85.5128 165.196C85.1809 165.261 84.8161 165.361 84.4846 165.46L85.811 153.126L103.419 155.049Z" fill="#D1E1FF"/>
<path fill-rule="evenodd" clip-rule="evenodd" d="M239.215 149.878V150.873H234.141V156.211H236.33L234.806 156.708V173.652H231.456V156.741L229.898 156.211H232.119V150.873H215.241V156.211H217.463L215.938 156.708V173.652H212.555V156.741L211.063 156.211H213.251V150.873H208.178V149.878H206.818V149.149H213.251V146.263H211.726V145.136C209.638 144.837 207.482 144.473 205.326 144.041V141.588C204.53 141.456 203.701 141.289 202.872 141.091V139.1C201.944 138.935 200.983 138.736 200.055 138.538C200.055 137.94 200.055 137.344 200.055 136.746C216.004 139.433 231.754 139.266 247.307 136.746C247.307 137.344 247.307 137.94 247.307 138.538C246.378 138.736 245.449 138.935 244.488 139.1V141.091C243.692 141.289 242.863 141.456 242.035 141.621V144.042C239.945 144.507 237.789 144.904 235.635 145.202V146.263H234.141V149.149H240.542V149.878H239.215ZM216.766 145.7V146.263H215.241V149.149H222.172V145.965C220.381 145.933 218.591 145.833 216.766 145.7ZM232.119 146.263H230.595V145.733C228.836 145.898 227.013 145.965 225.222 145.999V149.149H232.119V146.263Z" fill="#D1E1FF"/>
<path fill-rule="evenodd" clip-rule="evenodd" d="M200.319 37.319C199.391 38.1808 199.657 38.0814 197.502 37.4517C195.611 36.8548 196.507 36.6559 194.816 37.6172C193.29 38.5127 190.803 39.4082 189.642 40.1042C190.074 41.0662 193.788 44.2162 194.683 45.5093C194.351 45.6749 194.086 45.808 193.722 45.9739C193.158 46.2389 193.29 46.2389 192.627 45.8412C191.168 45.0119 186.492 42.3594 185.564 41.961C184.337 42.4917 181.087 44.15 179.96 44.0835C179.429 44.0506 178.567 43.9179 178.734 43.2545C179.164 41.6298 182.083 40.7339 183.973 39.905C184.735 39.5738 184.536 39.6071 184.702 38.7774C184.902 37.8822 186.162 31.3827 186.46 31.0516C186.593 30.9522 187.62 30.5212 187.819 30.4214C187.919 31.0187 187.985 31.6817 188.018 32.3115L188.349 35.9922C188.349 36.589 188.449 37.2853 188.549 37.849C189.411 37.418 190.273 37.0532 191.168 36.6223C195.611 34.4998 194.817 35.926 195.843 33.5385C196.441 32.2121 196.441 31.416 197.734 31.6156C197.502 34.2681 198.23 35.9264 200.319 37.319ZM162.584 11.6199C163.779 11.9851 163.512 12.018 165.171 10.4931C166.63 9.16626 165.734 9.36547 167.691 9.53142C169.415 9.66372 172.068 9.432 173.427 9.5643C173.461 10.5925 171.439 15.036 171.173 16.5938C171.538 16.5938 171.836 16.5938 172.233 16.5938C172.864 16.5938 172.732 16.6607 173.195 16.0309C174.157 14.6376 177.207 10.2273 177.904 9.49815C179.264 9.46526 182.879 9.53141 183.873 9.03395C184.337 8.76896 185.067 8.23824 184.635 7.70751C183.541 6.44723 180.524 6.87854 178.468 6.94506C177.639 6.94506 177.838 6.9118 177.306 6.24877C176.743 5.51921 172.831 0.180563 172.432 0.0146178C172.266 -0.0182722 171.139 0.0146178 170.94 0.0146178C171.073 0.611497 171.306 1.20875 171.538 1.80525L172.831 5.28674C173.063 5.81746 173.295 6.51338 173.461 7.04448C172.5 7.01122 171.538 7.04448 170.543 7.04448C165.635 7.04448 166.995 8.00614 165.004 6.28203C163.911 5.32 163.579 4.6237 162.484 5.35326C163.812 7.64099 163.878 9.46488 162.584 11.6199ZM162.054 8.23824C162.552 8.17208 162.717 8.93454 162.153 9.03395L161.358 9.13337C160.86 9.23316 160.661 8.43708 161.224 8.33766L162.054 8.23824ZM91.6231 61.2935C91.3574 61.8243 90.6278 61.4259 90.8603 60.962L91.0595 60.5307C91.3245 60.0336 92.0541 60.4313 91.7891 60.8955L91.6231 61.2935ZM92.8831 58.6736C92.6177 59.171 91.8881 58.8062 92.1531 58.3088L92.5183 57.5792C92.75 57.0818 93.4803 57.479 93.2478 57.9436L92.8831 58.6736ZM94.3751 55.7557C94.1433 56.2195 93.3801 55.8884 93.6455 55.3905L94.0428 54.6614C94.2757 54.1972 95.0048 54.5287 94.7731 55.0594L94.3751 55.7557ZM95.9669 52.904C95.6682 53.4014 94.9719 52.9369 95.2373 52.5059L95.6682 51.7764C95.9669 51.2789 96.6303 51.7435 96.3645 52.1744L95.9669 52.904ZM97.6245 50.0852C97.327 50.5497 96.6303 50.1188 96.9285 49.6546L97.3595 48.9583C97.6244 48.4937 98.354 48.9254 98.0561 49.3889L97.6245 50.0852ZM99.3818 47.3C99.1168 47.7309 98.3869 47.3329 98.6855 46.8687L99.1497 46.1724C99.4147 45.7422 100.144 46.1395 99.8131 46.6373L99.3818 47.3ZM101.206 44.6142C100.875 45.0448 100.244 44.5481 100.543 44.1167L101.007 43.4541C101.338 43.0228 102.001 43.5202 101.67 43.9515L101.206 44.6142ZM103.129 41.961C102.798 42.3923 102.168 41.8948 102.499 41.4642L102.997 40.8012C103.328 40.3699 103.958 40.9006 103.627 41.2983L103.129 41.961ZM105.052 39.4744C104.754 39.6403 104.389 39.3746 104.423 39.0435C104.389 38.8443 104.555 38.5793 104.787 38.546L105.052 38.2141C105.384 37.8164 106.047 38.3143 105.682 38.7445L105.616 38.8442L105.748 38.8771C106.279 39.0767 105.947 39.8392 105.45 39.6403L105.052 39.4744ZM107.274 36.8877C106.876 37.2857 106.312 36.7221 106.678 36.3237L107.208 35.7268C107.605 35.2959 108.169 35.8931 107.805 36.2572L107.274 36.8877ZM109.495 34.4673C109.131 34.8653 108.501 34.3013 108.899 33.9033L109.462 33.3064C109.827 32.9091 110.424 33.4727 110.059 33.87L109.495 34.4673ZM111.784 32.1463C111.352 32.5107 110.822 31.8805 111.22 31.5494L111.784 30.9854C112.215 30.5874 112.746 31.2171 112.38 31.5823L111.784 32.1463ZM114.171 29.8914C113.773 30.2559 113.209 29.6593 113.607 29.2946L114.238 28.731C114.635 28.3662 115.199 28.9959 114.768 29.3607L114.171 29.8914ZM116.625 27.7685C116.26 28.1004 115.696 27.5036 116.127 27.1392L116.758 26.6084C117.222 26.2433 117.687 26.9399 117.255 27.2386L116.625 27.7685ZM119.212 25.7129C118.747 26.0448 118.283 25.3818 118.714 25.0831L119.345 24.5857C119.809 24.2545 120.273 24.9176 119.842 25.2158L119.212 25.7129ZM121.831 23.7896C121.433 24.0882 120.902 23.4585 121.367 23.1266C121.599 22.961 121.831 22.7947 122.063 22.662C122.461 22.3641 122.992 22.9939 122.527 23.3254C122.295 23.4917 122.063 23.624 121.831 23.7896ZM124.55 21.9661C124.086 22.2647 123.688 21.5348 124.119 21.2698L124.816 20.8385C125.28 20.5406 125.711 21.2698 125.247 21.5348L124.55 21.9661ZM127.335 20.2749C126.905 20.5406 126.44 19.8443 126.938 19.5453L127.668 19.148C128.098 18.8823 128.563 19.5786 128.065 19.8772L127.335 20.2749ZM130.221 18.6834C129.69 18.9484 129.359 18.186 129.823 17.9539L130.552 17.5558C131.05 17.3237 131.415 18.0862 130.95 18.3183L130.221 18.6834ZM133.139 17.2247C132.674 17.4564 132.276 16.7269 132.774 16.4615C133.039 16.3621 133.271 16.2294 133.536 16.13C134 15.8975 134.365 16.6271 133.868 16.8595C133.636 16.9918 133.371 17.0916 133.139 17.2247ZM136.123 15.8646C135.593 16.0642 135.327 15.301 135.791 15.1018L136.554 14.7706C137.084 14.5711 137.349 15.3668 136.853 15.5331L136.123 15.8646ZM139.14 14.6376C138.642 14.8368 138.345 14.074 138.842 13.8748L139.638 13.5769C140.102 13.3777 140.433 14.1401 139.903 14.3397L139.14 14.6376ZM142.224 13.5107C141.727 13.6759 141.429 12.9131 141.959 12.7475C142.224 12.6481 142.489 12.5487 142.754 12.4825C143.219 12.2837 143.517 13.0462 142.987 13.2454C142.722 13.3444 142.49 13.4106 142.224 13.5107ZM145.341 12.5158C144.777 12.6481 144.612 11.8528 145.109 11.7201L145.905 11.4872C146.436 11.3549 146.635 12.1503 146.105 12.2837L145.341 12.5158ZM148.491 11.6199C147.961 11.753 147.762 10.9573 148.292 10.8246L149.088 10.6254C149.585 10.4931 149.817 11.2888 149.287 11.4211L148.491 11.6199ZM151.675 10.8575C151.176 10.9898 150.912 10.1944 151.476 10.0289L152.304 9.8633C152.869 9.76314 152.968 10.5925 152.47 10.6586L151.675 10.8575ZM154.857 10.1612C154.327 10.2606 154.195 9.46489 154.725 9.36547L155.521 9.23316C156.085 9.13337 156.217 9.92946 155.687 10.0289L154.857 10.1612ZM158.107 9.59757C157.577 9.69698 157.411 8.90127 157.975 8.80185L158.772 8.66955C159.302 8.57013 159.467 9.39911 158.904 9.49852L158.107 9.59757ZM47.6866 41.696C46.7578 42.5582 47.0236 42.4584 44.8678 41.7954C42.9773 41.2318 43.8725 41 42.182 41.995C40.6563 42.8568 38.169 43.7852 37.0089 44.4819C37.4399 45.4432 41.1538 48.5931 42.0489 49.8863C41.7171 50.0519 41.4521 50.1521 41.0873 50.3176C40.5233 50.6159 40.6564 50.6159 39.9929 50.2182C38.5338 49.3889 33.8582 46.7031 32.9298 46.3383C31.7032 46.8687 28.4534 48.527 27.3258 48.4608C26.7951 48.4276 25.9325 48.262 26.0992 47.5982C26.5297 45.9735 29.448 45.078 31.3376 44.2494C32.1005 43.9183 31.9016 43.9841 32.0672 43.1551C32.2672 42.2271 33.5267 35.7604 33.8253 35.4289C33.9247 35.3299 34.9854 34.8653 35.1843 34.7992C35.2844 35.396 35.351 36.0262 35.3839 36.6559L35.715 40.3699C35.715 40.9335 35.8144 41.6631 35.915 42.1934C36.7768 41.7954 37.6387 41.3973 38.5338 40.9997C42.9773 38.8768 42.1487 40.3034 43.2091 37.9159C43.8063 36.5898 43.7727 35.7941 45.0995 35.9925C44.8681 38.645 45.5973 40.3034 47.6866 41.696ZM46.7249 38.4133C46.2275 38.5789 46.4267 39.3413 46.9899 39.2087L47.7531 38.9437C48.2169 38.811 48.0514 38.0149 47.4878 38.1476L46.7249 38.4133ZM133.106 56.2524C133.536 56.6179 134.001 55.9545 133.602 55.623L133.271 55.3573C132.807 54.9921 132.342 55.6563 132.741 55.9874L133.106 56.2524ZM130.818 54.4296C131.249 54.7608 131.746 54.131 131.348 53.7991L130.685 53.2688C130.254 52.9369 129.756 53.5999 130.187 53.9318L130.818 54.4296ZM128.231 52.4394C128.629 52.7713 129.159 52.1415 128.728 51.7764L128.065 51.2789C127.634 50.981 127.104 51.6108 127.568 51.9427L128.231 52.4394ZM125.578 50.5161C126.042 50.8484 126.474 50.1188 126.042 49.8534L125.346 49.3889C124.882 49.0577 124.451 49.7869 124.882 50.0519L125.578 50.5161ZM122.859 48.6926C123.324 48.9912 123.754 48.2949 123.324 47.9963L122.628 47.565C122.163 47.2671 121.699 47.9301 122.163 48.2287L122.859 48.6926ZM120.107 46.9348C120.538 47.2006 121.003 46.5375 120.505 46.2389L119.809 45.808C119.378 45.5426 118.914 46.2056 119.378 46.5046L120.107 46.9348ZM117.255 45.2776C117.786 45.5426 118.117 44.8134 117.687 44.548L116.956 44.15C116.46 43.8843 116.095 44.6142 116.559 44.8796L117.255 45.2776ZM114.403 43.7187C114.9 43.9512 115.233 43.2209 114.768 42.9895L114.039 42.5915C113.541 42.3594 113.176 43.0889 113.674 43.3214L114.403 43.7187ZM111.452 42.2596C111.949 42.4917 112.314 41.7621 111.816 41.4971L111.087 41.1652C110.623 40.9331 110.226 41.6298 110.722 41.8948L111.452 42.2596ZM108.501 40.9003C109.031 41.0991 109.296 40.3366 108.799 40.1371L108.036 39.8059C107.539 39.6071 107.241 40.3695 107.738 40.5684L108.501 40.9003ZM102.399 38.5127C102.963 38.6783 103.129 37.8826 102.665 37.7503L101.869 37.4845C101.306 37.319 101.14 38.1147 101.604 38.247L102.399 38.5127ZM99.2828 37.5174C99.7802 37.6834 100.012 36.8877 99.5145 36.7221L98.7188 36.49C98.1881 36.3569 97.9563 37.1534 98.4867 37.2857L99.2828 37.5174ZM96.1324 36.6559C96.5966 36.7886 96.8953 36.0262 96.3313 35.8602L95.5359 35.6607C94.9387 35.5283 94.8393 36.3569 95.3371 36.4564L96.1324 36.6559ZM92.9492 35.8935C93.4799 35.9929 93.6122 35.1964 93.1152 35.097L92.2862 34.9315C91.7555 34.832 91.5891 35.6278 92.1199 35.7272L92.9492 35.8935ZM89.7331 35.2962C90.2298 35.396 90.429 34.5999 89.8654 34.4673C89.6 34.434 89.3014 34.3678 89.036 34.335C88.5393 34.2355 88.3401 35.0309 88.9037 35.1636C89.1691 35.1965 89.4677 35.2301 89.7331 35.2962ZM86.4826 34.7988C87.0466 34.8649 87.1127 34.0363 86.5824 34.0031L85.7867 33.9033C85.223 33.8371 85.1569 34.6665 85.6873 34.6994L86.4826 34.7988ZM83.2332 34.4673C83.7639 34.5002 83.8637 33.7044 83.2997 33.6383L82.4708 33.5721C81.9737 33.506 81.841 34.335 82.4379 34.4007L83.2332 34.4673ZM79.9838 34.2352C80.5478 34.2681 80.5142 33.4395 80.0171 33.4395L79.1874 33.4062C78.6245 33.3733 78.6245 34.2019 79.1548 34.2019L79.9838 34.2352ZM76.7008 34.1686C77.2312 34.1686 77.2644 33.34 76.7008 33.34C76.4358 33.34 76.1376 33.34 75.8718 33.34C75.374 33.34 75.3082 34.1686 75.8718 34.1686C76.1705 34.1686 76.4358 34.1686 76.7008 34.1686ZM73.4178 34.2352C74.015 34.1686 73.9156 33.3733 73.3853 33.4062L72.5896 33.4395C72.0256 33.4723 72.0921 34.3013 72.6228 34.2681L73.4178 34.2352ZM70.1684 34.4007C70.6988 34.3679 70.6326 33.5389 70.1022 33.5721L69.2729 33.6383C68.7429 33.6712 68.8094 34.5002 69.3398 34.4673L70.1684 34.4007ZM66.9194 34.6994C67.4161 34.6665 67.3832 33.8368 66.8192 33.9033C66.5542 33.9365 66.256 33.9694 65.9906 34.0031C65.4928 34.0363 65.5264 34.8653 66.09 34.7988C66.3554 34.7659 66.6204 34.7326 66.9194 34.6994ZM63.6689 35.1303C64.2325 35.0309 64.034 34.2352 63.5366 34.335L62.7076 34.434C62.1772 34.5671 62.3428 35.3628 62.8399 35.2637L63.6689 35.1303ZM60.4195 35.6939C60.9502 35.5949 60.8179 34.7659 60.2872 34.8653L59.4586 35.0309C58.9608 35.1303 59.0931 35.9264 59.6242 35.827L60.4195 35.6939ZM57.2363 36.3237C57.7337 36.2575 57.6018 35.4286 57.0378 35.5283L56.2417 35.7272C55.6777 35.8602 55.9435 36.6559 56.4409 36.5233L57.2363 36.3237ZM54.053 37.1201C54.5838 36.9538 54.3513 36.1585 53.8213 36.3241L53.0249 36.5236C52.4945 36.6559 52.727 37.4517 53.2577 37.3194L54.053 37.1201ZM50.8702 37.982C51.4005 37.8493 51.2013 37.02 50.6373 37.1863L49.8745 37.4184C49.3771 37.5511 49.5434 38.3468 50.1074 38.2141L50.8702 37.982ZM199.358 34.0363C198.861 34.2023 199.06 34.9644 199.623 34.832L200.386 34.5671C200.85 34.434 200.718 33.6383 200.121 33.8039L199.358 34.0363ZM285.739 51.9094C286.17 52.2409 286.668 51.5775 286.236 51.2789L285.905 50.981C285.441 50.6159 284.976 51.3122 285.374 51.6112L285.739 51.9094ZM283.451 50.0852C283.883 50.417 284.379 49.7536 283.983 49.4225L283.319 48.925C282.888 48.5931 282.39 49.2229 282.822 49.5548L283.451 50.0852ZM280.865 48.0628C281.262 48.3943 281.793 47.7645 281.361 47.4327L280.699 46.9352C280.268 46.6041 279.737 47.2342 280.201 47.5986L280.865 48.0628ZM278.211 46.1724C278.675 46.4714 279.108 45.7751 278.675 45.4764L278.013 45.0119C277.515 44.714 277.085 45.4103 277.548 45.7089L278.211 46.1724ZM275.493 44.3156C275.957 44.6142 276.388 43.9183 275.957 43.6193L275.261 43.1883C274.797 42.8901 274.366 43.5864 274.797 43.8843L275.493 44.3156ZM272.74 42.5582C273.171 42.8565 273.635 42.1934 273.171 41.8619L272.442 41.431C272.044 41.1656 271.547 41.8286 272.044 42.1605L272.74 42.5582ZM269.922 40.9003C270.42 41.1652 270.751 40.4357 270.32 40.204L269.59 39.7726C269.093 39.5409 268.728 40.2701 269.193 40.5022L269.922 40.9003ZM267.037 39.3413C267.534 39.5738 267.9 38.8768 267.402 38.6118L266.673 38.247C266.175 37.982 265.844 38.7445 266.308 38.9773L267.037 39.3413ZM264.085 37.8826C264.583 38.1147 264.948 37.3851 264.451 37.1534L263.72 36.7883C263.257 36.5562 262.859 37.2857 263.356 37.5174L264.085 37.8826ZM261.135 36.5233C261.666 36.7221 261.931 35.9593 261.433 35.7601L260.704 35.4286C260.173 35.2301 259.875 36.0258 260.372 36.1914L261.135 36.5233ZM258.085 35.2962C258.581 35.4951 258.913 34.7326 258.383 34.5002L257.619 34.2352C257.123 34.0363 256.824 34.7988 257.321 34.9976L258.085 35.2962ZM255.033 34.1686C255.597 34.3346 255.763 33.5056 255.298 33.3733L254.503 33.1076C253.938 32.942 253.773 33.7373 254.238 33.9033L255.033 34.1686ZM251.917 33.1405C252.447 33.306 252.645 32.5107 252.148 32.378L251.352 32.1459C250.822 31.9796 250.59 32.7757 251.121 32.9084L251.917 33.1405ZM248.766 32.279C249.231 32.4113 249.529 31.6488 248.964 31.4825L248.17 31.284C247.572 31.1517 247.473 31.9803 247.971 32.0801L248.766 32.279ZM245.583 31.5498C246.113 31.6488 246.245 30.8195 245.749 30.72L244.919 30.5545C244.389 30.4551 244.256 31.2508 244.787 31.3498L245.583 31.5498ZM242.366 30.9196C242.863 31.019 243.063 30.2226 242.499 30.1235C242.234 30.057 241.969 30.0241 241.669 29.9576C241.205 29.8914 240.974 30.6872 241.537 30.7866C241.836 30.8195 242.101 30.8864 242.366 30.9196ZM239.116 30.4218C239.681 30.4879 239.747 29.6922 239.216 29.6265L238.421 29.5263C237.857 29.4601 237.79 30.2895 238.321 30.3228L239.116 30.4218ZM235.867 30.0899C236.397 30.1564 236.497 29.3278 235.934 29.2613L235.104 29.1951C234.608 29.1619 234.475 29.9576 235.071 30.0238L235.867 30.0899ZM232.617 29.8914C233.182 29.8914 233.148 29.0625 232.651 29.0625L231.821 29.0288C231.258 29.0288 231.258 29.8249 231.788 29.8586L232.617 29.8914ZM229.334 29.792C229.865 29.792 229.899 28.9959 229.334 28.9627C229.069 28.9627 228.771 28.9627 228.506 28.9627C228.008 28.9627 227.942 29.792 228.506 29.792C228.804 29.792 229.069 29.792 229.334 29.792ZM226.052 29.8582C226.649 29.8249 226.549 28.9956 226.019 29.0285L225.223 29.0621C224.659 29.0954 224.726 29.924 225.256 29.8911L226.052 29.8582ZM222.802 30.0238C223.333 29.9909 223.3 29.1619 222.736 29.228L221.906 29.2942C221.376 29.3275 221.442 30.1232 221.973 30.0895L222.802 30.0238ZM219.553 30.3556C220.05 30.2895 220.017 29.4601 219.453 29.5263C219.187 29.5596 218.89 29.5928 218.625 29.6265C218.126 29.6593 218.16 30.4883 218.724 30.4218C218.989 30.3889 219.254 30.3556 219.553 30.3556ZM216.303 30.7533C216.866 30.6539 216.668 29.8582 216.171 29.9576L215.342 30.0899C214.812 30.1893 214.977 30.9858 215.474 30.8864L216.303 30.7533ZM213.053 31.3169C213.584 31.2175 213.451 30.4218 212.92 30.5216L212.092 30.6539C211.594 30.7533 211.727 31.5827 212.258 31.4825L213.053 31.3169ZM209.87 31.9803C210.367 31.8809 210.235 31.0519 209.671 31.1846L208.875 31.3502C208.312 31.5165 208.577 32.279 209.074 32.1467L209.87 31.9803ZM206.686 32.7424C207.218 32.5772 206.984 31.8148 206.487 31.9471L205.658 32.1463C205.128 32.3119 205.36 33.0743 205.891 32.942L206.686 32.7424ZM203.537 33.605C204.034 33.4727 203.835 32.6763 203.304 32.8097L202.508 33.0414C202.011 33.1741 202.177 34.0031 202.74 33.8371L203.537 33.605Z" fill="#D1E1FF"/>
</svg>