<svg width="24" height="24" viewBox="0 0 24 24" fill="none" xmlns="http://www.w3.org/2000/svg">
<g id="Frame">
<path id="Vector" d="M9.1435 17.082C7.2803 16.8614 5.44964 16.4217 3.6895 15.772C5.18012 14.1208 6.00379 11.9745 6.0005 9.75V9C6.0005 7.4087 6.63264 5.88258 7.75786 4.75736C8.88308 3.63214 10.4092 3 12.0005 3C13.5918 3 15.1179 3.63214 16.2431 4.75736C17.3684 5.88258 18.0005 7.4087 18.0005 9V9.75C17.9975 11.9746 18.8215 14.121 20.3125 15.772C18.5795 16.412 16.7525 16.857 14.8575 17.082M9.1435 17.082C11.0415 17.3071 12.9595 17.3071 14.8575 17.082M9.1435 17.082C8.9994 17.5319 8.96356 18.0094 9.03891 18.4757C9.11426 18.942 9.29867 19.384 9.57712 19.7656C9.85557 20.1472 10.2202 20.4576 10.6413 20.6716C11.0624 20.8856 11.5281 20.9972 12.0005 20.9972C12.4729 20.9972 12.9386 20.8856 13.3597 20.6716C13.7808 20.4576 14.1454 20.1472 14.4239 19.7656C14.7023 19.384 14.8867 18.942 14.9621 18.4757C15.0374 18.0094 15.0016 17.5319 14.8575 17.082" stroke="#71869D" stroke-width="1.5" stroke-linecap="round" stroke-linejoin="round"/>
<circle id="Ellipse 6" cx="4" cy="4" r="4" transform="matrix(-1 0 0 1 10 2)" fill="#EC5B56"/>
</g>
</svg>
