<svg width="139" height="150" viewBox="0 0 139 150" fill="none" xmlns="http://www.w3.org/2000/svg">
<path id="Vector" d="M101.775 0.827089C100.364 0.184364 98.7068 0.0868707 97.1347 0.686344L2.01266 36.7134C1.55065 36.8838 1.20799 37.2223 0.991848 37.6192C0.740585 38.0939 0.673096 38.6707 0.888257 39.2158L53.4698 178.051C53.675 178.596 54.1007 178.984 54.6093 179.178C55.03 179.335 55.5096 179.356 55.9717 179.186L151.094 143.159C152.656 142.559 153.834 141.392 154.477 139.981C155.109 138.569 155.207 136.912 154.617 135.35L104.943 4.20929C104.353 2.6478 103.187 1.46982 101.775 0.837077L101.775 0.827089Z" fill="url(#paint0_linear_495_10358)"/>
<defs>
<linearGradient id="paint0_linear_495_10358" x1="24.2097" y1="154.403" x2="130.667" y2="24.1158" gradientUnits="userSpaceOnUse">
<stop stop-color="#920000"/>
<stop offset="0.23" stop-color="#9C0200"/>
<stop offset="0.5" stop-color="#A00400"/>
<stop offset="1" stop-color="#D21A12"/>
</linearGradient>
</defs>
</svg>
